<?xml version="1.0" encoding="utf-8"?>
<!-- Generator: Adobe Illustrator 16.0.0, SVG Export Plug-In . SVG Version: 6.00 Build 0)  -->
<!DOCTYPE svg PUBLIC "-//W3C//DTD SVG 1.1//EN" "http://www.w3.org/Graphics/SVG/1.1/DTD/svg11.dtd">
<svg version="1.1" id="Layer_1" xmlns="http://www.w3.org/2000/svg" xmlns:xlink="http://www.w3.org/1999/xlink" x="0px" y="0px"
	 width="576px" height="720px" viewBox="0 0 576 720" enable-background="new 0 0 576 720" xml:space="preserve">
<path d="M467.101,150.45h71.93v12.042h-71.93V150.45z M395.173,150.45h71.929v12.042h-71.929V150.45z M323.244,150.45h71.929v12.042
	h-71.929V150.45z M251.316,150.45h71.929v12.042h-71.929V150.45z M179.387,150.45h71.929v12.042h-71.929V150.45z M107.459,150.45
	h71.929v12.042h-71.929V150.45z M35.53,150.45h71.929v12.042H35.53V150.45z"/>
<path fill="#E6E7E8" d="M323.244,480.912h71.929v48.695h-71.929V480.912z M251.316,480.912h71.929v48.695h-71.929V480.912z
	 M179.387,480.912h71.929v48.695h-71.929V480.912z M107.459,480.912h71.929v48.695h-71.929V480.912z M35.53,480.912h71.929v48.695
	H35.53V480.912z M179.387,423.467h71.929v57.445h-71.929V423.467z M323.244,366.022h71.929v57.444h-71.929V366.022z
	 M179.387,366.022h71.929v57.444h-71.929V366.022z M35.53,366.022h71.929v57.444H35.53V366.022z M323.244,317.327h71.929v48.695
	h-71.929V317.327z M251.316,317.327h71.929v48.695h-71.929V317.327z M179.387,317.327h71.929v48.695h-71.929V317.327z
	 M107.459,317.327h71.929v48.695h-71.929V317.327z M35.53,317.327h71.929v48.695H35.53V317.327z M467.101,259.882h71.93v57.445
	h-71.93V259.882z M395.173,259.882h71.929v57.445h-71.929V259.882z M323.244,211.187h71.929v48.695h-71.929V211.187z
	 M179.387,211.187h71.929v48.695h-71.929V211.187z M107.459,211.187h71.929v48.695h-71.929V211.187z M35.53,211.187h71.929v48.695
	H35.53V211.187z M323.244,162.492h71.929v48.695h-71.929V162.492z M179.387,162.492h71.929v48.695h-71.929V162.492z M35.53,162.492
	h71.929v48.695H35.53V162.492z"/>
<rect x="251.316" y="211.187" fill="#E6E7E8" width="71.929" height="48.695"/>
<path fill="#E6E7E8" d="M467.101,366.022h71.93v57.444h-71.93V366.022z M395.173,366.022h71.929v57.444h-71.929V366.022z
	 M467.101,317.327h71.93v48.695h-71.93V317.327z M395.173,317.327h71.929v48.695h-71.929V317.327z M251.316,259.882h71.929v57.445
	h-71.929V259.882z M107.459,259.882h71.929v57.445h-71.929V259.882z"/>
<path fill="#FFFFFF" d="M467.101,480.912h71.93v48.695h-71.93V480.912z M395.173,480.912h71.929v48.695h-71.929V480.912z
	 M467.101,423.467h71.93v57.445h-71.93V423.467z M395.173,423.467h71.929v57.445h-71.929V423.467z"/>
<line fill="none" stroke="#000000" stroke-width="0.5" stroke-miterlimit="10" x1="539.03" y1="365.772" x2="539.03" y2="317.577"/>
<line fill="none" stroke="#000000" stroke-width="0.5" stroke-miterlimit="10" x1="395.173" y1="366.022" x2="467.102" y2="366.022"/>
<line fill="none" stroke="#000000" stroke-width="0.5" stroke-miterlimit="10" x1="467.102" y1="366.022" x2="539.28" y2="366.022"/>
<line fill="none" stroke="#000000" stroke-width="0.5" stroke-miterlimit="10" x1="539.03" y1="423.217" x2="539.03" y2="366.272"/>
<line fill="none" stroke="#000000" stroke-width="0.5" stroke-miterlimit="10" x1="395.173" y1="423.467" x2="467.102" y2="423.467"/>
<line fill="none" stroke="#000000" stroke-width="0.5" stroke-miterlimit="10" x1="467.102" y1="423.467" x2="539.28" y2="423.467"/>
<line fill="none" stroke="#000000" stroke-width="0.5" stroke-miterlimit="10" x1="539.03" y1="480.662" x2="539.03" y2="423.717"/>
<line fill="none" stroke="#000000" stroke-width="0.5" stroke-miterlimit="10" x1="395.173" y1="480.912" x2="467.102" y2="480.912"/>
<line fill="none" stroke="#000000" stroke-width="0.5" stroke-miterlimit="10" x1="467.102" y1="480.912" x2="539.28" y2="480.912"/>
<line fill="none" stroke="#000000" stroke-width="0.5" stroke-miterlimit="10" x1="539.03" y1="529.357" x2="539.03" y2="481.162"/>
<line fill="none" stroke="#000000" stroke-width="0.5" stroke-miterlimit="10" x1="395.173" y1="529.607" x2="467.102" y2="529.607"/>
<line fill="none" stroke="#000000" stroke-width="0.5" stroke-miterlimit="10" x1="467.102" y1="529.607" x2="539.28" y2="529.607"/>
<line fill="none" stroke="#000000" stroke-width="0.5" stroke-miterlimit="10" x1="35.53" y1="210.937" x2="35.53" y2="162.742"/>
<line fill="none" stroke="#000000" stroke-width="0.5" stroke-miterlimit="10" x1="35.53" y1="259.632" x2="35.53" y2="211.437"/>
<line fill="none" stroke="#000000" stroke-width="0.5" stroke-miterlimit="10" x1="35.53" y1="317.077" x2="35.53" y2="260.132"/>
<line fill="none" stroke="#000000" stroke-width="0.5" stroke-miterlimit="10" x1="107.458" y1="317.077" x2="107.458" y2="260.132"/>
<line fill="none" stroke="#000000" stroke-width="0.5" stroke-miterlimit="10" x1="35.53" y1="365.772" x2="35.53" y2="317.577"/>
<line fill="none" stroke="#000000" stroke-width="0.5" stroke-miterlimit="10" x1="35.28" y1="366.022" x2="107.459" y2="366.022"/>
<line fill="none" stroke="#000000" stroke-width="0.5" stroke-miterlimit="10" x1="35.53" y1="423.217" x2="35.53" y2="366.272"/>
<line fill="none" stroke="#000000" stroke-width="0.5" stroke-miterlimit="10" x1="35.28" y1="423.467" x2="107.459" y2="423.467"/>
<line fill="none" stroke="#000000" stroke-width="0.5" stroke-miterlimit="10" x1="35.53" y1="480.662" x2="35.53" y2="423.717"/>
<line fill="none" stroke="#000000" stroke-width="0.5" stroke-miterlimit="10" x1="35.28" y1="480.912" x2="107.459" y2="480.912"/>
<line fill="none" stroke="#000000" stroke-width="0.5" stroke-miterlimit="10" x1="35.53" y1="529.357" x2="35.53" y2="481.162"/>
<line fill="none" stroke="#000000" stroke-width="0.5" stroke-miterlimit="10" x1="35.28" y1="529.607" x2="107.459" y2="529.607"/>
<line fill="none" stroke="#000000" stroke-width="0.5" stroke-miterlimit="10" x1="107.458" y1="210.937" x2="107.458" y2="162.742"/>
<line fill="none" stroke="#000000" stroke-width="0.5" stroke-miterlimit="10" x1="251.316" y1="210.937" x2="251.316" y2="162.742"/>
<line fill="none" stroke="#000000" stroke-width="0.5" stroke-miterlimit="10" x1="107.458" y1="259.632" x2="107.458" y2="211.437"/>
<line fill="none" stroke="#000000" stroke-width="0.5" stroke-miterlimit="10" x1="107.458" y1="259.882" x2="179.388" y2="259.882"/>
<line fill="none" stroke="#000000" stroke-width="0.5" stroke-miterlimit="10" x1="323.244" y1="210.937" x2="323.244" y2="162.742"/>
<line fill="none" stroke="#000000" stroke-width="0.5" stroke-miterlimit="10" x1="107.458" y1="317.327" x2="179.388" y2="317.327"/>
<line fill="none" stroke="#000000" stroke-width="0.5" stroke-miterlimit="10" x1="107.458" y1="365.772" x2="107.458" y2="317.577"/>
<line fill="none" stroke="#000000" stroke-width="0.5" stroke-miterlimit="10" x1="179.387" y1="317.327" x2="251.316" y2="317.327"/>
<line fill="none" stroke="#000000" stroke-width="0.5" stroke-miterlimit="10" x1="251.316" y1="317.327" x2="323.245" y2="317.327"/>
<line fill="none" stroke="#000000" stroke-width="0.5" stroke-miterlimit="10" x1="395.173" y1="365.772" x2="395.173" y2="317.577"/>
<line fill="none" stroke="#000000" stroke-width="0.5" stroke-miterlimit="10" x1="107.458" y1="366.022" x2="179.388" y2="366.022"/>
<line fill="none" stroke="#000000" stroke-width="0.5" stroke-miterlimit="10" x1="107.458" y1="423.217" x2="107.458" y2="366.272"/>
<line fill="none" stroke="#000000" stroke-width="0.5" stroke-miterlimit="10" x1="251.316" y1="366.022" x2="323.245" y2="366.022"/>
<line fill="none" stroke="#000000" stroke-width="0.5" stroke-miterlimit="10" x1="323.244" y1="366.022" x2="395.173" y2="366.022"/>
<line fill="none" stroke="#000000" stroke-width="0.5" stroke-miterlimit="10" x1="395.173" y1="423.217" x2="395.173" y2="366.272"/>
<line fill="none" stroke="#000000" stroke-width="0.5" stroke-miterlimit="10" x1="107.458" y1="423.467" x2="179.388" y2="423.467"/>
<line fill="none" stroke="#000000" stroke-width="0.5" stroke-miterlimit="10" x1="107.458" y1="480.662" x2="107.458" y2="423.717"/>
<line fill="none" stroke="#000000" stroke-width="0.5" stroke-miterlimit="10" x1="251.316" y1="423.467" x2="323.245" y2="423.467"/>
<line fill="none" stroke="#000000" stroke-width="0.5" stroke-miterlimit="10" x1="323.244" y1="423.467" x2="395.173" y2="423.467"/>
<line fill="none" stroke="#000000" stroke-width="0.5" stroke-miterlimit="10" x1="395.173" y1="480.662" x2="395.173" y2="423.717"/>
<line fill="none" stroke="#000000" stroke-width="0.5" stroke-miterlimit="10" x1="107.458" y1="480.912" x2="179.388" y2="480.912"/>
<line fill="none" stroke="#000000" stroke-width="0.5" stroke-miterlimit="10" x1="107.458" y1="529.357" x2="107.458" y2="481.162"/>
<line fill="none" stroke="#000000" stroke-width="0.5" stroke-miterlimit="10" x1="251.316" y1="480.912" x2="323.245" y2="480.912"/>
<line fill="none" stroke="#000000" stroke-width="0.5" stroke-miterlimit="10" x1="323.244" y1="480.912" x2="395.173" y2="480.912"/>
<line fill="none" stroke="#000000" stroke-width="0.5" stroke-miterlimit="10" x1="395.173" y1="529.357" x2="395.173" y2="481.162"/>
<line fill="none" stroke="#000000" stroke-width="0.5" stroke-miterlimit="10" x1="107.458" y1="529.607" x2="179.388" y2="529.607"/>
<line fill="none" stroke="#000000" stroke-width="0.5" stroke-miterlimit="10" x1="251.316" y1="529.607" x2="323.245" y2="529.607"/>
<line fill="none" stroke="#000000" stroke-width="0.5" stroke-miterlimit="10" x1="323.244" y1="529.607" x2="395.173" y2="529.607"/>
<line fill="none" stroke="#000000" stroke-width="0.5" stroke-miterlimit="10" x1="179.387" y1="210.937" x2="179.387" y2="162.742"/>
<line fill="none" stroke="#000000" stroke-width="0.5" stroke-miterlimit="10" x1="395.173" y1="210.937" x2="395.173" y2="162.742"/>
<line fill="none" stroke="#000000" stroke-width="0.5" stroke-miterlimit="10" x1="539.03" y1="210.937" x2="539.03" y2="162.742"/>
<line fill="none" stroke="#000000" stroke-width="0.5" stroke-miterlimit="10" x1="179.387" y1="259.632" x2="179.387" y2="211.437"/>
<line fill="none" stroke="#000000" stroke-width="0.5" stroke-miterlimit="10" x1="539.03" y1="259.632" x2="539.03" y2="211.437"/>
<line fill="none" stroke="#000000" stroke-width="0.5" stroke-miterlimit="10" x1="251.316" y1="259.882" x2="323.245" y2="259.882"/>
<line fill="none" stroke="#000000" stroke-width="0.5" stroke-miterlimit="10" x1="467.102" y1="210.937" x2="467.102" y2="162.742"/>
<line fill="none" stroke="#000000" stroke-width="0.5" stroke-miterlimit="10" x1="179.387" y1="259.882" x2="251.316" y2="259.882"/>
<line fill="none" stroke="#000000" stroke-width="0.5" stroke-miterlimit="10" x1="179.387" y1="317.077" x2="179.387" y2="260.132"/>
<line fill="none" stroke="#000000" stroke-width="0.5" stroke-miterlimit="10" x1="251.316" y1="317.077" x2="251.316" y2="260.132"/>
<line fill="none" stroke="#000000" stroke-width="0.5" stroke-miterlimit="10" x1="179.387" y1="365.772" x2="179.387" y2="317.577"/>
<line fill="none" stroke="#000000" stroke-width="0.5" stroke-miterlimit="10" x1="251.316" y1="365.772" x2="251.316" y2="317.577"/>
<line fill="none" stroke="#000000" stroke-width="0.5" stroke-miterlimit="10" x1="179.387" y1="366.022" x2="251.316" y2="366.022"/>
<line fill="none" stroke="#000000" stroke-width="0.5" stroke-miterlimit="10" x1="179.387" y1="423.217" x2="179.387" y2="366.272"/>
<line fill="none" stroke="#000000" stroke-width="0.5" stroke-miterlimit="10" x1="251.316" y1="423.217" x2="251.316" y2="366.272"/>
<line fill="none" stroke="#000000" stroke-width="0.5" stroke-miterlimit="10" x1="179.387" y1="423.467" x2="251.316" y2="423.467"/>
<line fill="none" stroke="#000000" stroke-width="0.5" stroke-miterlimit="10" x1="179.387" y1="480.662" x2="179.387" y2="423.717"/>
<line fill="none" stroke="#000000" stroke-width="0.5" stroke-miterlimit="10" x1="251.316" y1="480.662" x2="251.316" y2="423.717"/>
<line fill="none" stroke="#000000" stroke-width="0.5" stroke-miterlimit="10" x1="179.387" y1="480.912" x2="251.316" y2="480.912"/>
<line fill="none" stroke="#000000" stroke-width="0.5" stroke-miterlimit="10" x1="179.387" y1="529.357" x2="179.387" y2="481.162"/>
<line fill="none" stroke="#000000" stroke-width="0.5" stroke-miterlimit="10" x1="251.316" y1="529.357" x2="251.316" y2="481.162"/>
<line fill="none" stroke="#000000" stroke-width="0.5" stroke-miterlimit="10" x1="179.387" y1="529.607" x2="251.316" y2="529.607"/>
<line fill="none" stroke="#000000" stroke-width="0.5" stroke-miterlimit="10" x1="35.28" y1="211.187" x2="107.459" y2="211.187"/>
<line fill="none" stroke="#000000" stroke-width="0.5" stroke-miterlimit="10" x1="323.244" y1="259.882" x2="395.173" y2="259.882"/>
<line fill="none" stroke="#000000" stroke-width="0.5" stroke-miterlimit="10" x1="323.244" y1="317.077" x2="323.244" y2="260.132"/>
<line fill="none" stroke="#000000" stroke-width="0.5" stroke-miterlimit="10" x1="395.173" y1="259.882" x2="467.102" y2="259.882"/>
<line fill="none" stroke="#000000" stroke-width="0.5" stroke-miterlimit="10" x1="467.102" y1="259.882" x2="539.28" y2="259.882"/>
<line fill="none" stroke="#000000" stroke-width="0.5" stroke-miterlimit="10" x1="539.03" y1="317.077" x2="539.03" y2="260.132"/>
<line fill="none" stroke="#000000" stroke-width="0.5" stroke-miterlimit="10" x1="323.244" y1="317.327" x2="395.173" y2="317.327"/>
<line fill="none" stroke="#000000" stroke-width="0.5" stroke-miterlimit="10" x1="395.173" y1="317.327" x2="467.102" y2="317.327"/>
<line fill="none" stroke="#000000" stroke-width="0.5" stroke-miterlimit="10" x1="467.102" y1="317.327" x2="539.28" y2="317.327"/>
<line fill="none" stroke="#000000" stroke-width="0.5" stroke-miterlimit="10" x1="107.458" y1="211.187" x2="179.388" y2="211.187"/>
<line fill="none" stroke="#000000" stroke-width="0.5" stroke-miterlimit="10" x1="179.387" y1="211.187" x2="251.316" y2="211.187"/>
<line fill="none" stroke="#000000" stroke-width="0.5" stroke-miterlimit="10" x1="251.316" y1="211.187" x2="323.245" y2="211.187"/>
<line fill="none" stroke="#000000" stroke-width="0.5" stroke-miterlimit="10" x1="251.316" y1="259.632" x2="251.316" y2="211.437"/>
<line fill="none" stroke="#000000" stroke-width="0.5" stroke-miterlimit="10" x1="323.244" y1="211.187" x2="395.173" y2="211.187"/>
<line fill="none" stroke="#000000" stroke-width="0.5" stroke-miterlimit="10" x1="323.244" y1="259.632" x2="323.244" y2="211.437"/>
<line fill="none" stroke="#000000" stroke-width="0.5" stroke-miterlimit="10" x1="395.173" y1="211.187" x2="467.102" y2="211.187"/>
<line fill="none" stroke="#000000" stroke-width="0.5" stroke-miterlimit="10" x1="395.173" y1="259.632" x2="395.173" y2="211.437"/>
<line fill="none" stroke="#000000" stroke-width="0.5" stroke-miterlimit="10" x1="467.102" y1="211.187" x2="539.28" y2="211.187"/>
<line fill="none" stroke="#000000" stroke-width="0.5" stroke-miterlimit="10" x1="467.102" y1="259.632" x2="467.102" y2="211.437"/>
<line fill="none" stroke="#000000" stroke-width="0.5" stroke-miterlimit="10" x1="35.28" y1="259.882" x2="107.459" y2="259.882"/>
<line fill="none" stroke="#000000" stroke-width="0.5" stroke-miterlimit="10" x1="395.173" y1="317.077" x2="395.173" y2="260.132"/>
<line fill="none" stroke="#000000" stroke-width="0.5" stroke-miterlimit="10" x1="467.102" y1="317.077" x2="467.102" y2="260.132"/>
<line fill="none" stroke="#000000" stroke-width="0.5" stroke-miterlimit="10" x1="35.28" y1="317.327" x2="107.459" y2="317.327"/>
<line fill="none" stroke="#000000" stroke-width="0.5" stroke-miterlimit="10" x1="323.244" y1="365.772" x2="323.244" y2="317.577"/>
<line fill="none" stroke="#000000" stroke-width="0.5" stroke-miterlimit="10" x1="323.244" y1="423.217" x2="323.244" y2="366.272"/>
<line fill="none" stroke="#000000" stroke-width="0.5" stroke-miterlimit="10" x1="323.244" y1="480.662" x2="323.244" y2="423.717"/>
<line fill="none" stroke="#000000" stroke-width="0.5" stroke-miterlimit="10" x1="323.244" y1="529.357" x2="323.244" y2="481.162"/>
<line fill="none" stroke="#000000" stroke-width="0.5" stroke-miterlimit="10" x1="467.102" y1="365.772" x2="467.102" y2="317.577"/>
<line fill="none" stroke="#000000" stroke-width="0.5" stroke-miterlimit="10" x1="467.102" y1="423.217" x2="467.102" y2="366.272"/>
<line fill="none" stroke="#000000" stroke-width="0.5" stroke-miterlimit="10" x1="467.102" y1="480.662" x2="467.102" y2="423.717"/>
<line fill="none" stroke="#000000" stroke-width="0.5" stroke-miterlimit="10" x1="467.102" y1="529.357" x2="467.102" y2="481.162"/>
<line fill="none" stroke="#000000" stroke-width="0.5" stroke-miterlimit="10" x1="35.28" y1="150.45" x2="107.459" y2="150.45"/>
<line fill="none" stroke="#000000" stroke-width="0.5" stroke-miterlimit="10" x1="35.53" y1="162.242" x2="35.53" y2="150.7"/>
<line fill="none" stroke="#000000" stroke-width="0.5" stroke-miterlimit="10" x1="107.458" y1="150.45" x2="179.388" y2="150.45"/>
<line fill="none" stroke="#000000" stroke-width="0.5" stroke-miterlimit="10" x1="179.387" y1="150.45" x2="251.316" y2="150.45"/>
<line fill="none" stroke="#000000" stroke-width="0.5" stroke-miterlimit="10" x1="251.316" y1="150.45" x2="323.245" y2="150.45"/>
<line fill="none" stroke="#000000" stroke-width="0.5" stroke-miterlimit="10" x1="323.244" y1="150.45" x2="395.173" y2="150.45"/>
<line fill="none" stroke="#000000" stroke-width="0.5" stroke-miterlimit="10" x1="395.173" y1="150.45" x2="467.102" y2="150.45"/>
<line fill="none" stroke="#000000" stroke-width="0.5" stroke-miterlimit="10" x1="467.102" y1="150.45" x2="539.28" y2="150.45"/>
<line fill="none" stroke="#000000" stroke-width="0.5" stroke-miterlimit="10" x1="539.03" y1="162.242" x2="539.03" y2="150.7"/>
<line fill="none" stroke="#000000" stroke-width="0.5" stroke-miterlimit="10" x1="35.28" y1="162.492" x2="107.459" y2="162.492"/>
<line fill="none" stroke="#000000" stroke-width="0.5" stroke-miterlimit="10" x1="107.458" y1="162.492" x2="179.388" y2="162.492"/>
<line fill="none" stroke="#000000" stroke-width="0.5" stroke-miterlimit="10" x1="179.387" y1="162.492" x2="251.316" y2="162.492"/>
<line fill="none" stroke="#000000" stroke-width="0.5" stroke-miterlimit="10" x1="251.316" y1="162.492" x2="323.245" y2="162.492"/>
<line fill="none" stroke="#000000" stroke-width="0.5" stroke-miterlimit="10" x1="323.244" y1="162.492" x2="395.173" y2="162.492"/>
<line fill="none" stroke="#000000" stroke-width="0.5" stroke-miterlimit="10" x1="395.173" y1="162.492" x2="467.102" y2="162.492"/>
<line fill="none" stroke="#000000" stroke-width="0.5" stroke-miterlimit="10" x1="467.102" y1="162.492" x2="539.28" y2="162.492"/>
<line fill="none" stroke="#FFFFFF" stroke-width="1.5" stroke-miterlimit="10" x1="107.458" y1="162.242" x2="107.458" y2="150.7"/>
<line fill="none" stroke="#FFFFFF" stroke-width="1.5" stroke-miterlimit="10" x1="179.387" y1="162.242" x2="179.387" y2="150.7"/>
<line fill="none" stroke="#FFFFFF" stroke-width="1.5" stroke-miterlimit="10" x1="251.316" y1="162.242" x2="251.316" y2="150.7"/>
<line fill="none" stroke="#FFFFFF" stroke-width="1.5" stroke-miterlimit="10" x1="323.244" y1="162.242" x2="323.244" y2="150.7"/>
<line fill="none" stroke="#FFFFFF" stroke-width="1.5" stroke-miterlimit="10" x1="395.173" y1="162.242" x2="395.173" y2="150.7"/>
<line fill="none" stroke="#FFFFFF" stroke-width="1.5" stroke-miterlimit="10" x1="467.102" y1="162.242" x2="467.102" y2="150.7"/>
<text transform="matrix(1 0 0 1 55.2407 159.6118)" fill="#FFFFFF" font-family="'FrutigerLTStd-BlackCn'" font-size="9">Monday</text>
<text transform="matrix(1 0 0 1 127.0063 159.6118)" fill="#FFFFFF" font-family="'FrutigerLTStd-BlackCn'" font-size="9">Tuesday</text>
<text transform="matrix(1 0 0 1 192.3555 159.6118)" fill="#FFFFFF" font-family="'FrutigerLTStd-BlackCn'" font-size="9">Wednesday</text>
<text transform="matrix(1 0 0 1 269.0356 159.6118)" fill="#FFFFFF" font-family="'FrutigerLTStd-BlackCn'" font-size="9">Thursday</text>
<text transform="matrix(1 0 0 1 346.7236 159.6118)" fill="#FFFFFF" font-family="'FrutigerLTStd-BlackCn'" font-size="9">Friday</text>
<text transform="matrix(1 0 0 1 412.9814 159.6118)" fill="#FFFFFF" font-family="'FrutigerLTStd-BlackCn'" font-size="9">Saturday</text>
<text transform="matrix(1 0 0 1 488.3291 159.6118)" fill="#FFFFFF" font-family="'FrutigerLTStd-BlackCn'" font-size="9">Sunday</text>
<text transform="matrix(1 0 0 1 50.1099 173.1519)" font-family="'FrutigerLTStd-BoldCn'" font-size="9.5">Lane Swim</text>
<text transform="matrix(1 0 0 1 51.5825 184.6562)" font-family="'FrutigerLTStd-BoldCn'" font-size="9.5">6:30-8 am</text>
<path d="M54.974,195.429c1.683-1.93,2.519-3.251,2.519-4.135c0-0.599-0.323-1.112-0.979-1.112c-0.38,0-0.894,0.209-1.274,0.513
	l-0.104-0.836c0.57-0.276,1.15-0.399,1.559-0.399c1.027,0,1.673,0.761,1.673,1.673c0,1.16-1.037,2.871-2.472,4.306h2.566v0.723
	h-3.489V195.429z M59.8,195.191c0.285,0.171,0.77,0.352,1.15,0.352c0.846,0,1.378-0.637,1.378-1.502
	c0-0.903-0.513-1.397-1.407-1.397c-0.333,0-0.637,0.076-1.093,0.219v-3.337h3.051v0.685h-2.253v1.854
	c0.209-0.067,0.504-0.105,0.751-0.105c0.979,0,1.825,0.666,1.825,1.978c0,1.378-0.723,2.291-2.139,2.291
	c-0.428,0-0.913-0.095-1.302-0.266L59.8,195.191z M64.322,192.358c0-0.352-0.028-0.703-0.038-1.045h0.77l0.029,0.722h0.019
	c0.257-0.551,0.666-0.789,1.198-0.789c0.513,0,0.894,0.267,1.141,0.761c0.256-0.476,0.627-0.761,1.179-0.761
	c0.836,0,1.407,0.485,1.407,1.55v3.365h-0.798v-3.327c0-0.618-0.266-0.903-0.742-0.903c-0.589,0-0.913,0.361-0.913,1.236v2.995
	h-0.798v-3.327c0-0.618-0.266-0.903-0.742-0.903c-0.589,0-0.913,0.361-0.913,1.236v2.995h-0.798V192.358z M73.613,189.525h1.597
	c0.666,0,1.084,0.181,1.436,0.514c0.333,0.323,0.523,0.789,0.523,1.369c0,1.293-0.751,1.978-2.158,1.978H74.45v2.776h-0.837V189.525
	z M74.45,192.701h0.456c1.017,0,1.388-0.475,1.388-1.217c0-0.913-0.514-1.274-1.369-1.274H74.45V192.701z M79.391,191.246
	c1.283,0,1.949,0.97,1.949,2.491s-0.666,2.491-1.949,2.491c-1.284,0-1.949-0.97-1.949-2.491S78.107,191.246,79.391,191.246z
	 M79.391,195.581c0.76,0,1.112-0.627,1.112-1.844s-0.352-1.844-1.112-1.844c-0.761,0-1.112,0.627-1.112,1.844
	S78.63,195.581,79.391,195.581z M83.969,191.246c1.284,0,1.949,0.97,1.949,2.491s-0.665,2.491-1.949,2.491
	c-1.283,0-1.949-0.97-1.949-2.491S82.686,191.246,83.969,191.246z M83.969,195.581c0.761,0,1.112-0.627,1.112-1.844
	s-0.352-1.844-1.112-1.844c-0.76,0-1.112,0.627-1.112,1.844S83.209,195.581,83.969,195.581z M86.913,189.031h0.799v7.13h-0.799
	V189.031z"/>
<text transform="matrix(1 0 0 1 53.7388 207.6655)"><tspan x="0" y="0" font-family="'FrutigerLTStd-Cn'" font-size="9.5">Swirl </tspan><tspan x="21.26" y="0" font-family="'FrutigerLTStd-Cn'" font-size="9.5">P</tspan><tspan x="25.973" y="0" font-family="'FrutigerLTStd-Cn'" font-size="9.5">ool</tspan></text>
<text transform="matrix(1 0 0 1 193.9688 173.1616)" font-family="'FrutigerLTStd-BoldCn'" font-size="9.5">Lane Swim</text>
<text transform="matrix(1 0 0 1 195.4409 184.666)" font-family="'FrutigerLTStd-BoldCn'" font-size="9.5">6:30-8 am</text>
<path d="M198.833,195.438c1.683-1.93,2.52-3.251,2.52-4.135c0-0.599-0.323-1.112-0.979-1.112c-0.38,0-0.894,0.209-1.273,0.514
	l-0.105-0.837c0.571-0.275,1.15-0.399,1.559-0.399c1.027,0,1.673,0.76,1.673,1.673c0,1.16-1.036,2.871-2.472,4.307h2.566v0.722
	h-3.489V195.438z M203.659,195.201c0.285,0.171,0.77,0.352,1.15,0.352c0.846,0,1.378-0.637,1.378-1.502
	c0-0.903-0.513-1.397-1.407-1.397c-0.333,0-0.637,0.076-1.093,0.219v-3.337h3.051v0.685h-2.253v1.854
	c0.209-0.066,0.504-0.104,0.751-0.104c0.979,0,1.825,0.666,1.825,1.978c0,1.378-0.722,2.291-2.139,2.291
	c-0.428,0-0.913-0.095-1.303-0.266L203.659,195.201z M208.181,192.368c0-0.352-0.028-0.704-0.038-1.046h0.77l0.029,0.723h0.019
	c0.256-0.552,0.666-0.789,1.198-0.789c0.513,0,0.894,0.266,1.141,0.76c0.257-0.475,0.627-0.76,1.179-0.76
	c0.836,0,1.407,0.485,1.407,1.549v3.365h-0.799v-3.327c0-0.618-0.266-0.903-0.741-0.903c-0.589,0-0.913,0.361-0.913,1.235v2.995
	h-0.799v-3.327c0-0.618-0.266-0.903-0.741-0.903c-0.589,0-0.913,0.361-0.913,1.235v2.995h-0.799V192.368z M217.472,189.535h1.597
	c0.666,0,1.084,0.181,1.436,0.513c0.333,0.323,0.523,0.789,0.523,1.369c0,1.292-0.751,1.977-2.158,1.977h-0.561v2.776h-0.836
	V189.535z M218.309,192.71h0.456c1.017,0,1.388-0.475,1.388-1.217c0-0.912-0.514-1.273-1.369-1.273h-0.475V192.71z M223.249,191.256
	c1.283,0,1.949,0.97,1.949,2.491s-0.666,2.49-1.949,2.49s-1.949-0.969-1.949-2.49S221.966,191.256,223.249,191.256z
	 M223.249,195.591c0.76,0,1.112-0.627,1.112-1.844s-0.352-1.844-1.112-1.844c-0.761,0-1.112,0.627-1.112,1.844
	S222.488,195.591,223.249,195.591z M227.828,191.256c1.283,0,1.949,0.97,1.949,2.491s-0.666,2.49-1.949,2.49
	c-1.284,0-1.949-0.969-1.949-2.49S226.544,191.256,227.828,191.256z M227.828,195.591c0.76,0,1.112-0.627,1.112-1.844
	s-0.352-1.844-1.112-1.844c-0.761,0-1.112,0.627-1.112,1.844S227.067,195.591,227.828,195.591z M230.772,189.041h0.798v7.129h-0.798
	V189.041z"/>
<text transform="matrix(1 0 0 1 197.5977 207.6748)"><tspan x="0" y="0" font-family="'FrutigerLTStd-Cn'" font-size="9.5">Swirl </tspan><tspan x="21.26" y="0" font-family="'FrutigerLTStd-Cn'" font-size="9.5">P</tspan><tspan x="25.973" y="0" font-family="'FrutigerLTStd-Cn'" font-size="9.5">ool</tspan></text>
<text transform="matrix(1 0 0 1 337.8271 173.1709)" font-family="'FrutigerLTStd-BoldCn'" font-size="9.5">Lane Swim</text>
<text transform="matrix(1 0 0 1 339.2998 184.6753)" font-family="'FrutigerLTStd-BoldCn'" font-size="9.5">6:30-8 am</text>
<path d="M342.701,195.448c1.683-1.93,2.519-3.251,2.519-4.135c0-0.599-0.323-1.112-0.979-1.112c-0.38,0-0.893,0.209-1.273,0.513
	l-0.104-0.836c0.57-0.276,1.15-0.399,1.559-0.399c1.027,0,1.674,0.761,1.674,1.673c0,1.16-1.036,2.871-2.472,4.306h2.566v0.723
	h-3.488V195.448z M347.527,195.21c0.285,0.171,0.77,0.352,1.149,0.352c0.847,0,1.379-0.637,1.379-1.502
	c0-0.903-0.514-1.397-1.407-1.397c-0.333,0-0.637,0.076-1.093,0.219v-3.336h3.051v0.684h-2.253v1.854
	c0.21-0.067,0.504-0.104,0.751-0.104c0.979,0,1.825,0.665,1.825,1.977c0,1.378-0.722,2.291-2.139,2.291
	c-0.428,0-0.912-0.095-1.302-0.266L347.527,195.21z M352.049,192.377c0-0.352-0.028-0.704-0.038-1.045h0.771l0.028,0.722h0.019
	c0.257-0.551,0.666-0.789,1.198-0.789c0.513,0,0.894,0.266,1.141,0.761c0.257-0.476,0.627-0.761,1.179-0.761
	c0.837,0,1.407,0.485,1.407,1.55v3.365h-0.799v-3.328c0-0.618-0.267-0.903-0.741-0.903c-0.59,0-0.913,0.361-0.913,1.236v2.995
	h-0.799v-3.328c0-0.618-0.266-0.903-0.741-0.903c-0.589,0-0.912,0.361-0.912,1.236v2.995h-0.799V192.377z M361.34,189.545h1.598
	c0.665,0,1.083,0.18,1.435,0.513c0.333,0.323,0.523,0.789,0.523,1.369c0,1.293-0.751,1.978-2.158,1.978h-0.561v2.776h-0.837V189.545
	z M362.177,192.72h0.456c1.018,0,1.388-0.476,1.388-1.217c0-0.913-0.513-1.274-1.369-1.274h-0.475V192.72z M367.117,191.265
	c1.283,0,1.948,0.97,1.948,2.491s-0.665,2.491-1.948,2.491s-1.949-0.97-1.949-2.491S365.834,191.265,367.117,191.265z
	 M367.117,195.6c0.761,0,1.112-0.627,1.112-1.844s-0.352-1.844-1.112-1.844s-1.112,0.627-1.112,1.844S366.356,195.6,367.117,195.6z
	 M371.696,191.265c1.283,0,1.948,0.97,1.948,2.491s-0.665,2.491-1.948,2.491c-1.284,0-1.949-0.97-1.949-2.491
	S370.412,191.265,371.696,191.265z M371.696,195.6c0.76,0,1.112-0.627,1.112-1.844s-0.353-1.844-1.112-1.844
	c-0.761,0-1.112,0.627-1.112,1.844S370.936,195.6,371.696,195.6z M374.64,189.05h0.799v7.13h-0.799V189.05z"/>
<text transform="matrix(1 0 0 1 341.4658 207.6846)"><tspan x="0" y="0" font-family="'FrutigerLTStd-Cn'" font-size="9.5">Swirl </tspan><tspan x="21.261" y="0" font-family="'FrutigerLTStd-Cn'" font-size="9.5">P</tspan><tspan x="25.973" y="0" font-family="'FrutigerLTStd-Cn'" font-size="9.5">ool</tspan></text>
<text transform="matrix(1 0 0 1 50.1289 221.8774)" font-family="'FrutigerLTStd-BoldCn'" font-size="9.5">Lane Swim</text>
<text transform="matrix(1 0 0 1 44.1157 233.3818)" font-family="'FrutigerLTStd-BoldCn'" font-size="9.5">8:30 am-1 pm</text>
<path d="M52.884,243.917c0.285,0.171,0.77,0.352,1.15,0.352c0.846,0,1.378-0.637,1.378-1.502c0-0.903-0.513-1.397-1.407-1.397
	c-0.333,0-0.637,0.076-1.093,0.219v-3.337h3.051v0.685h-2.253v1.854c0.209-0.066,0.504-0.104,0.751-0.104
	c0.979,0,1.825,0.666,1.825,1.978c0,1.378-0.723,2.291-2.139,2.291c-0.428,0-0.913-0.095-1.303-0.266L52.884,243.917z
	 M59.108,238.185c1.245,0,1.93,1.169,1.93,3.384s-0.685,3.384-1.93,3.384s-1.93-1.169-1.93-3.384S57.863,238.185,59.108,238.185z
	 M59.108,244.269c0.761,0,1.093-0.836,1.093-2.7s-0.333-2.7-1.093-2.7c-0.76,0-1.093,0.836-1.093,2.7S58.348,244.269,59.108,244.269
	z M61.966,241.084c0-0.352-0.028-0.704-0.038-1.046h0.77l0.028,0.723h0.019c0.257-0.551,0.666-0.789,1.198-0.789
	c0.514,0,0.894,0.266,1.141,0.761c0.256-0.476,0.627-0.761,1.179-0.761c0.836,0,1.407,0.485,1.407,1.55v3.365h-0.798v-3.327
	c0-0.618-0.266-0.903-0.742-0.903c-0.589,0-0.913,0.361-0.913,1.236v2.995h-0.798v-3.327c0-0.618-0.266-0.903-0.742-0.903
	c-0.589,0-0.913,0.361-0.913,1.236v2.995h-0.798V241.084z M71.257,238.251h1.597c0.666,0,1.083,0.181,1.436,0.514
	c0.333,0.323,0.523,0.789,0.523,1.369c0,1.293-0.751,1.978-2.158,1.978h-0.561v2.776h-0.836V238.251z M72.094,241.426h0.457
	c1.017,0,1.388-0.475,1.388-1.217c0-0.913-0.513-1.274-1.369-1.274h-0.476V241.426z M77.035,239.972c1.283,0,1.949,0.97,1.949,2.491
	s-0.666,2.491-1.949,2.491c-1.284,0-1.949-0.97-1.949-2.491S75.751,239.972,77.035,239.972z M77.035,244.307
	c0.76,0,1.112-0.627,1.112-1.844s-0.352-1.844-1.112-1.844c-0.761,0-1.112,0.627-1.112,1.844S76.274,244.307,77.035,244.307z
	 M81.613,239.972c1.284,0,1.949,0.97,1.949,2.491s-0.665,2.491-1.949,2.491c-1.283,0-1.949-0.97-1.949-2.491
	S80.33,239.972,81.613,239.972z M81.613,244.307c0.761,0,1.112-0.627,1.112-1.844s-0.352-1.844-1.112-1.844
	c-0.76,0-1.112,0.627-1.112,1.844S80.853,244.307,81.613,244.307z M84.557,237.757h0.799v7.13h-0.799V237.757z M86.01,241.892h4.753
	v0.646H86.01V241.892z"/>
<text transform="matrix(1 0 0 1 57.2637 256.3911)" font-family="'FrutigerLTStd-Cn'" font-size="9.5">Shallow</text>
<text transform="matrix(1 0 0 1 122.0537 227.644)" font-family="'FrutigerLTStd-BoldCn'" font-size="9.5">Lane Swim</text>
<text transform="matrix(1 0 0 1 116.04 239.1484)" font-family="'FrutigerLTStd-BoldCn'" font-size="9.5">8:30 am-1 pm</text>
<path d="M124.638,249.684c0.285,0.171,0.77,0.352,1.15,0.352c0.846,0,1.378-0.637,1.378-1.502c0-0.903-0.513-1.397-1.407-1.397
	c-0.333,0-0.637,0.076-1.093,0.219v-3.337h3.051v0.685h-2.253v1.854c0.209-0.066,0.504-0.104,0.751-0.104
	c0.979,0,1.825,0.666,1.825,1.978c0,1.378-0.722,2.291-2.139,2.291c-0.428,0-0.913-0.095-1.302-0.267L124.638,249.684z
	 M130.861,243.951c1.246,0,1.93,1.169,1.93,3.384s-0.684,3.384-1.93,3.384c-1.245,0-1.93-1.169-1.93-3.384
	S129.616,243.951,130.861,243.951z M130.861,250.035c0.761,0,1.093-0.836,1.093-2.7s-0.333-2.7-1.093-2.7
	c-0.76,0-1.093,0.836-1.093,2.7S130.101,250.035,130.861,250.035z M133.72,246.851c0-0.352-0.028-0.704-0.038-1.046h0.77
	l0.029,0.723h0.019c0.256-0.551,0.665-0.789,1.198-0.789c0.513,0,0.894,0.266,1.141,0.761c0.257-0.476,0.627-0.761,1.179-0.761
	c0.836,0,1.407,0.485,1.407,1.549v3.365h-0.798v-3.327c0-0.618-0.266-0.903-0.742-0.903c-0.589,0-0.913,0.361-0.913,1.236v2.994
	h-0.798v-3.327c0-0.618-0.266-0.903-0.741-0.903c-0.59,0-0.913,0.361-0.913,1.236v2.994h-0.799V246.851z M143.011,244.018h0.837
	v5.913h2.177v0.722h-3.014V244.018z M146.916,246.138c0.399-0.257,0.894-0.399,1.369-0.399c0.713,0,1.141,0.304,1.293,0.456
	c0.209,0.209,0.418,0.504,0.418,1.188v2.529c0,0.285,0.019,0.57,0.038,0.741h-0.723l-0.047-0.656h-0.019
	c-0.219,0.371-0.618,0.723-1.359,0.723c-0.799,0-1.397-0.466-1.397-1.397c0-0.941,0.618-1.635,2.281-1.635h0.466v-0.219
	c0-0.361-0.028-0.57-0.181-0.779c-0.162-0.219-0.475-0.304-0.808-0.304c-0.494,0-0.969,0.2-1.245,0.504L146.916,246.138z
	 M149.235,248.276c-0.143-0.019-0.342-0.019-0.561-0.019c-0.941,0-1.388,0.447-1.388,1.008c0,0.513,0.266,0.846,0.817,0.846
	c0.694,0,1.131-0.561,1.131-1.227V248.276z M151.124,246.851c0-0.352-0.029-0.704-0.038-1.046h0.77l0.028,0.723h0.019
	c0.257-0.551,0.666-0.789,1.226-0.789c0.846,0,1.417,0.485,1.417,1.549v3.365h-0.798v-3.127c0-0.77-0.285-1.103-0.798-1.103
	c-0.627,0-1.027,0.437-1.027,1.312v2.918h-0.798V246.851z M156.302,248.467c0,1.122,0.437,1.645,1.321,1.645
	c0.399,0,0.836-0.2,1.112-0.399l0.038,0.723c-0.38,0.181-0.875,0.285-1.359,0.285c-1.284,0-1.949-0.97-1.949-2.491
	s0.666-2.491,1.873-2.491c1.093,0,1.702,0.875,1.702,2.301v0.428H156.302z M158.241,247.858c0-1.008-0.313-1.512-0.951-1.512
	c-0.513,0-0.969,0.38-0.988,1.512H158.241z M159.711,249.712c0.361,0.219,0.742,0.361,1.141,0.361c0.608,0,0.922-0.314,0.922-0.685
	c0-0.333-0.171-0.561-0.618-0.761l-0.533-0.237c-0.694-0.314-0.95-0.627-0.95-1.246c0-0.798,0.618-1.407,1.559-1.407
	c0.399,0,0.751,0.066,1.027,0.171l-0.038,0.685c-0.247-0.114-0.589-0.209-0.951-0.209c-0.522,0-0.798,0.285-0.798,0.666
	c0,0.39,0.285,0.608,0.817,0.817l0.285,0.114c0.589,0.237,0.96,0.637,0.96,1.236c0,0.836-0.447,1.502-1.559,1.502
	c-0.504,0-0.96-0.104-1.312-0.285L159.711,249.712z"/>
<text transform="matrix(1 0 0 1 193.978 221.9062)" font-family="'FrutigerLTStd-BoldCn'" font-size="9.5">Lane Swim</text>
<text transform="matrix(1 0 0 1 187.9644 233.4106)" font-family="'FrutigerLTStd-BoldCn'" font-size="9.5">8:30 am-1 pm</text>
<path d="M196.733,243.945c0.285,0.171,0.77,0.352,1.15,0.352c0.846,0,1.378-0.637,1.378-1.502c0-0.903-0.514-1.397-1.407-1.397
	c-0.333,0-0.637,0.076-1.093,0.219v-3.336h3.052v0.684h-2.253v1.854c0.209-0.066,0.504-0.104,0.751-0.104
	c0.979,0,1.825,0.666,1.825,1.977c0,1.378-0.723,2.291-2.139,2.291c-0.428,0-0.913-0.095-1.302-0.266L196.733,243.945z
	 M202.957,238.213c1.245,0,1.93,1.169,1.93,3.384c0,2.215-0.685,3.384-1.93,3.384c-1.246,0-1.93-1.169-1.93-3.384
	C201.027,239.382,201.711,238.213,202.957,238.213z M202.957,244.297c0.76,0,1.093-0.836,1.093-2.7c0-1.863-0.333-2.7-1.093-2.7
	c-0.761,0-1.093,0.837-1.093,2.7C201.864,243.46,202.196,244.297,202.957,244.297z M205.815,241.112
	c0-0.352-0.029-0.703-0.038-1.045h0.77l0.028,0.722h0.019c0.257-0.551,0.666-0.789,1.198-0.789c0.514,0,0.894,0.266,1.141,0.76
	c0.257-0.475,0.627-0.76,1.179-0.76c0.836,0,1.407,0.485,1.407,1.549v3.365h-0.798v-3.327c0-0.618-0.267-0.903-0.742-0.903
	c-0.589,0-0.913,0.361-0.913,1.236v2.995h-0.798v-3.327c0-0.618-0.266-0.903-0.742-0.903c-0.589,0-0.913,0.361-0.913,1.236v2.995
	h-0.798V241.112z M215.106,238.28h1.597c0.666,0,1.083,0.181,1.436,0.513c0.333,0.323,0.522,0.789,0.522,1.369
	c0,1.292-0.751,1.977-2.158,1.977h-0.561v2.776h-0.836V238.28z M215.943,241.455h0.457c1.017,0,1.388-0.475,1.388-1.217
	c0-0.913-0.513-1.274-1.369-1.274h-0.476V241.455z M220.883,240c1.284,0,1.949,0.969,1.949,2.49s-0.665,2.491-1.949,2.491
	c-1.283,0-1.949-0.97-1.949-2.491S219.6,240,220.883,240z M220.883,244.335c0.761,0,1.112-0.627,1.112-1.844
	s-0.352-1.844-1.112-1.844c-0.76,0-1.112,0.627-1.112,1.844S220.123,244.335,220.883,244.335z M225.462,240
	c1.283,0,1.949,0.969,1.949,2.49s-0.666,2.491-1.949,2.491s-1.949-0.97-1.949-2.491S224.179,240,225.462,240z M225.462,244.335
	c0.761,0,1.112-0.627,1.112-1.844s-0.352-1.844-1.112-1.844c-0.76,0-1.112,0.627-1.112,1.844S224.702,244.335,225.462,244.335z
	 M228.406,237.785h0.798v7.13h-0.798V237.785z M229.859,241.92h4.753v0.646h-4.753V241.92z"/>
<text transform="matrix(1 0 0 1 201.1123 256.4194)" font-family="'FrutigerLTStd-Cn'" font-size="9.5">Shallow</text>
<text transform="matrix(1 0 0 1 265.9023 227.6724)" font-family="'FrutigerLTStd-BoldCn'" font-size="9.5">Lane Swim</text>
<text transform="matrix(1 0 0 1 259.8892 239.1768)" font-family="'FrutigerLTStd-BoldCn'" font-size="9.5">8:30 am-1 pm</text>
<path d="M268.487,249.712c0.285,0.171,0.77,0.352,1.15,0.352c0.846,0,1.378-0.637,1.378-1.502c0-0.903-0.514-1.397-1.407-1.397
	c-0.333,0-0.637,0.076-1.093,0.219v-3.337h3.051v0.685h-2.253v1.854c0.209-0.067,0.504-0.105,0.751-0.105
	c0.979,0,1.825,0.666,1.825,1.978c0,1.378-0.723,2.291-2.139,2.291c-0.428,0-0.912-0.095-1.302-0.266L268.487,249.712z
	 M274.71,243.979c1.245,0,1.93,1.169,1.93,3.384s-0.685,3.384-1.93,3.384s-1.93-1.169-1.93-3.384S273.465,243.979,274.71,243.979z
	 M274.71,250.063c0.76,0,1.093-0.836,1.093-2.7s-0.333-2.7-1.093-2.7s-1.093,0.836-1.093,2.7S273.95,250.063,274.71,250.063z
	 M277.569,246.879c0-0.352-0.029-0.703-0.038-1.045h0.77l0.028,0.722h0.019c0.257-0.551,0.666-0.789,1.198-0.789
	c0.514,0,0.894,0.267,1.141,0.761c0.256-0.476,0.627-0.761,1.179-0.761c0.836,0,1.407,0.485,1.407,1.55v3.365h-0.798v-3.327
	c0-0.618-0.266-0.903-0.742-0.903c-0.589,0-0.913,0.361-0.913,1.236v2.995h-0.798v-3.327c0-0.618-0.266-0.903-0.742-0.903
	c-0.589,0-0.913,0.361-0.913,1.236v2.995h-0.798V246.879z M286.86,244.046h0.836v5.913h2.177v0.723h-3.013V244.046z
	 M290.765,246.166c0.399-0.257,0.894-0.399,1.369-0.399c0.713,0,1.141,0.304,1.292,0.457c0.21,0.209,0.419,0.504,0.419,1.188v2.529
	c0,0.285,0.019,0.57,0.038,0.742h-0.723l-0.048-0.656h-0.019c-0.219,0.371-0.618,0.723-1.359,0.723
	c-0.799,0-1.397-0.466-1.397-1.397c0-0.941,0.618-1.635,2.281-1.635h0.466v-0.218c0-0.361-0.028-0.57-0.181-0.78
	c-0.161-0.219-0.476-0.304-0.808-0.304c-0.495,0-0.97,0.2-1.246,0.504L290.765,246.166z M293.084,248.305
	c-0.143-0.019-0.342-0.019-0.561-0.019c-0.941,0-1.389,0.447-1.389,1.007c0,0.514,0.267,0.846,0.818,0.846
	c0.693,0,1.131-0.561,1.131-1.227V248.305z M294.973,246.879c0-0.352-0.028-0.703-0.038-1.045h0.771l0.028,0.722h0.019
	c0.257-0.551,0.666-0.789,1.227-0.789c0.846,0,1.416,0.485,1.416,1.55v3.365h-0.798v-3.128c0-0.77-0.285-1.103-0.799-1.103
	c-0.627,0-1.026,0.438-1.026,1.312v2.918h-0.799V246.879z M300.15,248.495c0,1.122,0.438,1.645,1.321,1.645
	c0.399,0,0.837-0.2,1.112-0.399l0.038,0.723c-0.38,0.181-0.874,0.285-1.359,0.285c-1.283,0-1.948-0.97-1.948-2.491
	s0.665-2.491,1.872-2.491c1.094,0,1.702,0.875,1.702,2.301v0.428H300.15z M302.09,247.887c0-1.008-0.313-1.512-0.95-1.512
	c-0.514,0-0.97,0.38-0.989,1.512H302.09z M303.561,249.74c0.361,0.219,0.741,0.361,1.141,0.361c0.608,0,0.922-0.313,0.922-0.685
	c0-0.333-0.171-0.561-0.617-0.76l-0.532-0.238c-0.694-0.313-0.951-0.627-0.951-1.245c0-0.799,0.618-1.407,1.56-1.407
	c0.398,0,0.751,0.067,1.026,0.171l-0.038,0.684c-0.247-0.114-0.59-0.209-0.951-0.209c-0.522,0-0.798,0.285-0.798,0.666
	c0,0.39,0.285,0.608,0.817,0.817l0.285,0.114c0.59,0.238,0.96,0.637,0.96,1.236c0,0.836-0.446,1.502-1.559,1.502
	c-0.504,0-0.96-0.104-1.312-0.285L303.561,249.74z"/>
<text transform="matrix(1 0 0 1 337.8271 221.9346)" font-family="'FrutigerLTStd-BoldCn'" font-size="9.5">Lane Swim</text>
<text transform="matrix(1 0 0 1 331.8135 233.439)" font-family="'FrutigerLTStd-BoldCn'" font-size="9.5">8:30 am-1 pm</text>
<path d="M340.582,243.974c0.285,0.171,0.771,0.352,1.15,0.352c0.847,0,1.379-0.637,1.379-1.502c0-0.903-0.514-1.397-1.407-1.397
	c-0.333,0-0.637,0.076-1.093,0.219v-3.337h3.051v0.685h-2.253v1.854c0.209-0.066,0.504-0.104,0.751-0.104
	c0.979,0,1.825,0.666,1.825,1.978c0,1.378-0.722,2.291-2.139,2.291c-0.428,0-0.912-0.095-1.303-0.266L340.582,243.974z
	 M346.806,238.242c1.245,0,1.93,1.169,1.93,3.384s-0.685,3.384-1.93,3.384s-1.93-1.169-1.93-3.384S345.561,238.242,346.806,238.242z
	 M346.806,244.326c0.761,0,1.094-0.836,1.094-2.7s-0.333-2.7-1.094-2.7c-0.76,0-1.093,0.836-1.093,2.7
	S346.046,244.326,346.806,244.326z M349.664,241.141c0-0.352-0.028-0.704-0.038-1.046h0.771l0.028,0.723h0.019
	c0.257-0.551,0.666-0.789,1.198-0.789c0.514,0,0.894,0.266,1.141,0.76c0.257-0.475,0.628-0.76,1.179-0.76
	c0.837,0,1.407,0.485,1.407,1.549v3.365h-0.799v-3.327c0-0.618-0.266-0.903-0.741-0.903c-0.59,0-0.913,0.361-0.913,1.236v2.994
	h-0.798v-3.327c0-0.618-0.267-0.903-0.742-0.903c-0.589,0-0.912,0.361-0.912,1.236v2.994h-0.799V241.141z M358.955,238.308h1.598
	c0.665,0,1.084,0.181,1.436,0.513c0.332,0.323,0.522,0.789,0.522,1.369c0,1.293-0.751,1.977-2.158,1.977h-0.561v2.776h-0.837
	V238.308z M359.792,241.483h0.456c1.018,0,1.389-0.476,1.389-1.217c0-0.913-0.514-1.274-1.369-1.274h-0.476V241.483z
	 M364.732,240.029c1.283,0,1.949,0.97,1.949,2.491s-0.666,2.491-1.949,2.491s-1.949-0.97-1.949-2.491
	S363.449,240.029,364.732,240.029z M364.732,244.364c0.761,0,1.112-0.627,1.112-1.844s-0.352-1.844-1.112-1.844
	s-1.112,0.627-1.112,1.844S363.972,244.364,364.732,244.364z M369.312,240.029c1.283,0,1.948,0.97,1.948,2.491
	s-0.665,2.491-1.948,2.491s-1.949-0.97-1.949-2.491S368.028,240.029,369.312,240.029z M369.312,244.364
	c0.761,0,1.112-0.627,1.112-1.844s-0.352-1.844-1.112-1.844s-1.112,0.627-1.112,1.844S368.551,244.364,369.312,244.364z
	 M372.255,237.814h0.799v7.129h-0.799V237.814z M373.708,241.949h4.754v0.646h-4.754V241.949z"/>
<text transform="matrix(1 0 0 1 344.9619 256.4482)" font-family="'FrutigerLTStd-Cn'" font-size="9.5">Shallow</text>
<text transform="matrix(1 0 0 1 119.3936 269.2637)" font-family="'FrutigerLTStd-BoldCn'" font-size="9.5">Public Swim</text>
<text transform="matrix(1 0 0 1 124.7515 280.7681)" font-family="'FrutigerLTStd-BoldCn'" font-size="9.5">10-11 am</text>
<path d="M126.918,291.541c1.683-1.93,2.519-3.251,2.519-4.135c0-0.599-0.323-1.112-0.979-1.112c-0.38,0-0.894,0.209-1.273,0.514
	l-0.105-0.837c0.571-0.275,1.15-0.399,1.559-0.399c1.027,0,1.673,0.76,1.673,1.673c0,1.16-1.036,2.871-2.472,4.306h2.567v0.723
	h-3.489V291.541z M131.744,291.303c0.286,0.171,0.77,0.352,1.15,0.352c0.846,0,1.378-0.637,1.378-1.502
	c0-0.903-0.513-1.397-1.407-1.397c-0.333,0-0.637,0.076-1.093,0.218v-3.336h3.051v0.685h-2.253v1.854
	c0.209-0.066,0.504-0.104,0.751-0.104c0.979,0,1.825,0.666,1.825,1.977c0,1.378-0.722,2.291-2.139,2.291
	c-0.428,0-0.913-0.095-1.302-0.266L131.744,291.303z M136.266,288.47c0-0.352-0.028-0.704-0.038-1.046h0.77l0.029,0.723h0.019
	c0.256-0.552,0.666-0.789,1.198-0.789c0.513,0,0.894,0.266,1.141,0.76c0.257-0.475,0.627-0.76,1.179-0.76
	c0.836,0,1.407,0.485,1.407,1.549v3.365h-0.799v-3.327c0-0.618-0.266-0.903-0.741-0.903c-0.589,0-0.913,0.361-0.913,1.236v2.995
	h-0.799v-3.327c0-0.618-0.266-0.903-0.741-0.903c-0.589,0-0.913,0.361-0.913,1.236v2.995h-0.799V288.47z M145.557,285.637h1.597
	c0.666,0,1.084,0.181,1.436,0.513c0.333,0.323,0.523,0.789,0.523,1.369c0,1.292-0.751,1.977-2.158,1.977h-0.561v2.776h-0.836
	V285.637z M146.394,288.812h0.456c1.018,0,1.388-0.475,1.388-1.217c0-0.913-0.513-1.273-1.369-1.273h-0.475V288.812z
	 M151.334,287.358c1.283,0,1.949,0.969,1.949,2.491c0,1.521-0.666,2.49-1.949,2.49s-1.949-0.97-1.949-2.49
	C149.385,288.327,150.051,287.358,151.334,287.358z M151.334,291.692c0.76,0,1.112-0.627,1.112-1.844s-0.352-1.844-1.112-1.844
	c-0.761,0-1.112,0.627-1.112,1.844S150.573,291.692,151.334,291.692z M155.913,287.358c1.283,0,1.949,0.969,1.949,2.491
	c0,1.521-0.666,2.49-1.949,2.49c-1.284,0-1.949-0.97-1.949-2.49C153.964,288.327,154.629,287.358,155.913,287.358z M155.913,291.692
	c0.76,0,1.112-0.627,1.112-1.844s-0.352-1.844-1.112-1.844c-0.761,0-1.112,0.627-1.112,1.844S155.152,291.692,155.913,291.692z
	 M158.857,285.143h0.798v7.13h-0.798V285.143z"/>
<text transform="matrix(1 0 0 1 125.6826 303.7769)"><tspan x="0" y="0" font-family="'FrutigerLTStd-Cn'" font-size="9.5">Swirl </tspan><tspan x="21.26" y="0" font-family="'FrutigerLTStd-Cn'" font-size="9.5">P</tspan><tspan x="25.973" y="0" font-family="'FrutigerLTStd-Cn'" font-size="9.5">ool</tspan></text>
<path d="M123.944,308.646h0.836v2.88h0.019l2.196-2.88h0.998l-2.491,3.137l2.7,3.498h-1.083l-2.32-3.213h-0.019v3.213h-0.836
	V308.646z M129.73,308.437v0.951h-0.875v-0.951H129.73z M128.894,310.433h0.798v4.848h-0.798V310.433z M134.416,314.388
	c0,0.295,0.029,0.599,0.038,0.894h-0.77l-0.028-0.713h-0.019c-0.209,0.38-0.57,0.78-1.274,0.78c-0.998,0-1.673-0.818-1.673-2.491
	s0.675-2.491,1.673-2.491c0.551,0,0.913,0.219,1.236,0.732h0.019v-2.947h0.798V314.388z M132.552,311.013
	c-0.732,0-1.064,0.627-1.064,1.844s0.333,1.844,1.064,1.844s1.065-0.627,1.065-1.844S133.284,311.013,132.552,311.013z
	 M138.985,314.388c0,0.295,0.028,0.599,0.038,0.894h-0.77l-0.029-0.713h-0.019c-0.209,0.38-0.57,0.78-1.274,0.78
	c-0.998,0-1.673-0.818-1.673-2.491s0.675-2.491,1.673-2.491c0.552,0,0.913,0.219,1.236,0.732h0.019v-2.947h0.799V314.388z
	 M137.122,311.013c-0.732,0-1.065,0.627-1.065,1.844s0.333,1.844,1.065,1.844s1.064-0.627,1.064-1.844
	S137.854,311.013,137.122,311.013z M140.979,308.437v0.951h-0.875v-0.951H140.979z M140.142,310.433h0.798v4.848h-0.798V310.433z
	 M142.774,313.095c0,1.122,0.437,1.645,1.321,1.645c0.399,0,0.836-0.2,1.112-0.399l0.038,0.723c-0.38,0.181-0.875,0.285-1.359,0.285
	c-1.284,0-1.949-0.97-1.949-2.491s0.665-2.491,1.873-2.491c1.093,0,1.702,0.875,1.702,2.301v0.428H142.774z M144.713,312.487
	c0-1.008-0.313-1.512-0.95-1.512c-0.514,0-0.97,0.38-0.989,1.512H144.713z M148.825,308.646h1.597c0.666,0,1.084,0.181,1.436,0.514
	c0.333,0.323,0.523,0.789,0.523,1.369c0,1.293-0.751,1.978-2.158,1.978h-0.561v2.775h-0.836V308.646z M149.662,311.821h0.456
	c1.018,0,1.388-0.476,1.388-1.217c0-0.913-0.513-1.274-1.369-1.274h-0.475V311.821z M154.602,310.367
	c1.283,0,1.949,0.97,1.949,2.491s-0.666,2.491-1.949,2.491s-1.949-0.97-1.949-2.491S153.319,310.367,154.602,310.367z
	 M154.602,314.702c0.761,0,1.112-0.627,1.112-1.844s-0.352-1.844-1.112-1.844c-0.76,0-1.112,0.627-1.112,1.844
	S153.842,314.702,154.602,314.702z M159.181,310.367c1.283,0,1.949,0.97,1.949,2.491s-0.666,2.491-1.949,2.491
	c-1.284,0-1.949-0.97-1.949-2.491S157.897,310.367,159.181,310.367z M159.181,314.702c0.76,0,1.112-0.627,1.112-1.844
	s-0.352-1.844-1.112-1.844c-0.761,0-1.112,0.627-1.112,1.844S158.42,314.702,159.181,314.702z M162.125,308.152h0.798v7.129h-0.798
	V308.152z"/>
<text transform="matrix(1 0 0 1 263.2617 269.2827)" font-family="'FrutigerLTStd-BoldCn'" font-size="9.5">Public Swim</text>
<text transform="matrix(1 0 0 1 268.6196 280.7871)" font-family="'FrutigerLTStd-BoldCn'" font-size="9.5">10-11 am</text>
<path d="M270.776,291.56c1.683-1.93,2.519-3.251,2.519-4.135c0-0.599-0.323-1.112-0.979-1.112c-0.38,0-0.894,0.209-1.274,0.513
	l-0.104-0.836c0.57-0.275,1.15-0.399,1.559-0.399c1.026,0,1.673,0.76,1.673,1.673c0,1.16-1.036,2.871-2.472,4.306h2.567v0.723
	h-3.489V291.56z M275.603,291.322c0.285,0.171,0.77,0.352,1.15,0.352c0.846,0,1.378-0.637,1.378-1.502
	c0-0.903-0.513-1.397-1.407-1.397c-0.333,0-0.637,0.076-1.093,0.218v-3.336h3.052v0.685h-2.253v1.854
	c0.209-0.066,0.504-0.104,0.751-0.104c0.979,0,1.825,0.666,1.825,1.977c0,1.378-0.723,2.291-2.139,2.291
	c-0.428,0-0.913-0.095-1.302-0.266L275.603,291.322z M280.125,288.489c0-0.352-0.029-0.704-0.038-1.046h0.77l0.028,0.723h0.019
	c0.257-0.552,0.666-0.789,1.198-0.789c0.513,0,0.894,0.266,1.141,0.76c0.257-0.475,0.627-0.76,1.179-0.76
	c0.837,0,1.407,0.485,1.407,1.549v3.365h-0.799v-3.327c0-0.618-0.266-0.903-0.741-0.903c-0.589,0-0.913,0.361-0.913,1.236v2.995
	h-0.798v-3.327c0-0.618-0.267-0.903-0.742-0.903c-0.589,0-0.913,0.361-0.913,1.236v2.995h-0.798V288.489z M289.415,285.656h1.598
	c0.665,0,1.083,0.181,1.436,0.513c0.332,0.323,0.522,0.789,0.522,1.369c0,1.292-0.751,1.977-2.158,1.977h-0.561v2.776h-0.837
	V285.656z M290.252,288.831h0.456c1.018,0,1.388-0.475,1.388-1.217c0-0.913-0.513-1.273-1.368-1.273h-0.476V288.831z
	 M295.192,287.377c1.283,0,1.949,0.97,1.949,2.49c0,1.521-0.666,2.491-1.949,2.491s-1.948-0.969-1.948-2.491
	C293.244,288.347,293.909,287.377,295.192,287.377z M295.192,291.711c0.761,0,1.112-0.627,1.112-1.844s-0.352-1.844-1.112-1.844
	s-1.112,0.627-1.112,1.844S294.432,291.711,295.192,291.711z M299.771,287.377c1.283,0,1.948,0.97,1.948,2.49
	c0,1.521-0.665,2.491-1.948,2.491s-1.949-0.969-1.949-2.491C297.822,288.347,298.488,287.377,299.771,287.377z M299.771,291.711
	c0.761,0,1.112-0.627,1.112-1.844s-0.352-1.844-1.112-1.844s-1.112,0.627-1.112,1.844S299.011,291.711,299.771,291.711z
	 M302.715,285.162h0.799v7.13h-0.799V285.162z"/>
<text transform="matrix(1 0 0 1 269.541 303.7959)"><tspan x="0" y="0" font-family="'FrutigerLTStd-Cn'" font-size="9.5">Swirl </tspan><tspan x="21.261" y="0" font-family="'FrutigerLTStd-Cn'" font-size="9.5">P</tspan><tspan x="25.973" y="0" font-family="'FrutigerLTStd-Cn'" font-size="9.5">ool</tspan></text>
<path d="M267.803,308.665h0.837v2.88h0.019l2.196-2.88h0.998l-2.491,3.137l2.7,3.498h-1.083l-2.32-3.213h-0.019v3.213h-0.837
	V308.665z M273.589,308.456v0.951h-0.875v-0.951H273.589z M272.752,310.452h0.798v4.848h-0.798V310.452z M278.274,314.407
	c0,0.295,0.029,0.599,0.038,0.894h-0.77l-0.028-0.713h-0.019c-0.209,0.38-0.57,0.78-1.274,0.78c-0.998,0-1.673-0.818-1.673-2.491
	c0-1.673,0.675-2.491,1.673-2.491c0.551,0,0.913,0.219,1.236,0.732h0.019v-2.947h0.798V314.407z M276.411,311.032
	c-0.732,0-1.065,0.627-1.065,1.844s0.333,1.844,1.065,1.844c0.732,0,1.064-0.627,1.064-1.844S277.143,311.032,276.411,311.032z
	 M282.844,314.407c0,0.295,0.028,0.599,0.038,0.894h-0.77l-0.029-0.713h-0.019c-0.209,0.38-0.57,0.78-1.273,0.78
	c-0.999,0-1.673-0.818-1.673-2.491c0-1.673,0.675-2.491,1.673-2.491c0.551,0,0.913,0.219,1.236,0.732h0.019v-2.947h0.799V314.407z
	 M280.98,311.032c-0.732,0-1.065,0.627-1.065,1.844s0.333,1.844,1.065,1.844s1.064-0.627,1.064-1.844
	S281.712,311.032,280.98,311.032z M284.837,308.456v0.951h-0.875v-0.951H284.837z M284,310.452h0.798v4.848H284V310.452z
	 M286.632,313.114c0,1.122,0.437,1.645,1.321,1.645c0.399,0,0.836-0.2,1.112-0.399l0.038,0.723c-0.38,0.181-0.874,0.285-1.359,0.285
	c-1.284,0-1.949-0.97-1.949-2.491s0.665-2.491,1.873-2.491c1.093,0,1.702,0.875,1.702,2.301v0.428H286.632z M288.571,312.506
	c0-1.008-0.313-1.512-0.95-1.512c-0.514,0-0.97,0.38-0.989,1.512H288.571z M292.684,308.665h1.597c0.666,0,1.084,0.181,1.436,0.514
	c0.333,0.323,0.523,0.789,0.523,1.369c0,1.293-0.751,1.978-2.158,1.978h-0.561v2.775h-0.837V308.665z M293.521,311.84h0.456
	c1.017,0,1.388-0.476,1.388-1.217c0-0.913-0.514-1.274-1.369-1.274h-0.475V311.84z M298.461,310.386c1.283,0,1.948,0.97,1.948,2.491
	s-0.665,2.491-1.948,2.491c-1.284,0-1.949-0.97-1.949-2.491S297.177,310.386,298.461,310.386z M298.461,314.721
	c0.76,0,1.112-0.627,1.112-1.844s-0.353-1.844-1.112-1.844c-0.761,0-1.112,0.627-1.112,1.844S297.7,314.721,298.461,314.721z
	 M303.039,310.386c1.284,0,1.949,0.97,1.949,2.491s-0.665,2.491-1.949,2.491c-1.283,0-1.948-0.97-1.948-2.491
	S301.756,310.386,303.039,310.386z M303.039,314.721c0.761,0,1.112-0.627,1.112-1.844s-0.352-1.844-1.112-1.844
	c-0.76,0-1.111,0.627-1.111,1.844S302.279,314.721,303.039,314.721z M305.983,308.171h0.799v7.129h-0.799V308.171z"/>
<text transform="matrix(1 0 0 1 399.8711 275.0488)"><tspan x="0" y="0" font-family="'FrutigerLTStd-BoldCn'" font-size="9.5">P</tspan><tspan x="5.054" y="0" font-family="'FrutigerLTStd-BoldCn'" font-size="9.5">r</tspan><tspan x="8.074" y="0" font-family="'FrutigerLTStd-BoldCn'" font-size="9.5">eschool Swim</tspan></text>
<text transform="matrix(1 0 0 1 412.4688 286.5537)" font-family="'FrutigerLTStd-BoldCn'" font-size="9.5">10-11 am</text>
<path d="M412.26,297.326c1.683-1.93,2.52-3.251,2.52-4.135c0-0.599-0.323-1.112-0.979-1.112c-0.38,0-0.894,0.209-1.274,0.513
	l-0.104-0.836c0.571-0.276,1.15-0.399,1.56-0.399c1.026,0,1.673,0.761,1.673,1.673c0,1.16-1.036,2.871-2.472,4.306h2.566v0.723
	h-3.488V297.326z M417.086,297.088c0.285,0.171,0.77,0.352,1.15,0.352c0.846,0,1.378-0.637,1.378-1.502
	c0-0.903-0.513-1.397-1.406-1.397c-0.333,0-0.638,0.076-1.094,0.219v-3.336h3.052v0.684h-2.253v1.854
	c0.209-0.066,0.504-0.104,0.751-0.104c0.979,0,1.825,0.665,1.825,1.977c0,1.378-0.723,2.291-2.139,2.291
	c-0.428,0-0.913-0.095-1.303-0.266L417.086,297.088z M421.607,294.255c0-0.352-0.028-0.703-0.038-1.045h0.771l0.028,0.722h0.02
	c0.256-0.551,0.665-0.789,1.197-0.789c0.514,0,0.894,0.266,1.141,0.76c0.257-0.475,0.628-0.76,1.179-0.76
	c0.837,0,1.407,0.484,1.407,1.549v3.365h-0.799v-3.327c0-0.618-0.266-0.903-0.741-0.903c-0.59,0-0.912,0.361-0.912,1.236v2.995
	h-0.799v-3.327c0-0.618-0.267-0.903-0.741-0.903c-0.59,0-0.913,0.361-0.913,1.236v2.995h-0.799V294.255z M430.898,291.423h1.598
	c0.665,0,1.084,0.181,1.436,0.513c0.332,0.323,0.522,0.789,0.522,1.369c0,1.293-0.751,1.978-2.158,1.978h-0.561v2.776h-0.837
	V291.423z M431.735,294.598h0.456c1.018,0,1.389-0.475,1.389-1.217c0-0.913-0.514-1.274-1.369-1.274h-0.476V294.598z
	 M436.676,293.144c1.283,0,1.949,0.969,1.949,2.49s-0.666,2.491-1.949,2.491s-1.948-0.97-1.948-2.491
	S435.393,293.144,436.676,293.144z M436.676,297.478c0.761,0,1.112-0.627,1.112-1.844s-0.352-1.844-1.112-1.844
	s-1.112,0.627-1.112,1.844S435.915,297.478,436.676,297.478z M441.255,293.144c1.283,0,1.949,0.969,1.949,2.49
	s-0.666,2.491-1.949,2.491s-1.948-0.97-1.948-2.491S439.972,293.144,441.255,293.144z M441.255,297.478
	c0.761,0,1.112-0.627,1.112-1.844s-0.352-1.844-1.112-1.844s-1.112,0.627-1.112,1.844S440.494,297.478,441.255,297.478z
	 M444.199,290.928h0.798v7.13h-0.798V290.928z M449.416,291.679l0.229,0.685l-1.217,0.276l0.817,0.941l-0.589,0.418l-0.628-1.065
	l-0.646,1.065l-0.58-0.418l0.827-0.941l-1.217-0.276l0.219-0.685l1.141,0.495l-0.104-1.246h0.723l-0.124,1.236L449.416,291.679z"/>
<path d="M411.661,302.927h0.837v2.88h0.019l2.196-2.88h0.998l-2.49,3.137l2.699,3.498h-1.083l-2.32-3.213h-0.019v3.213h-0.837
	V302.927z M417.447,302.718v0.951h-0.874v-0.951H417.447z M416.611,304.714h0.798v4.848h-0.798V304.714z M422.133,308.669
	c0,0.295,0.028,0.599,0.038,0.894H421.4l-0.028-0.713h-0.019c-0.21,0.38-0.57,0.779-1.274,0.779c-0.998,0-1.673-0.817-1.673-2.49
	c0-1.673,0.675-2.491,1.673-2.491c0.552,0,0.913,0.218,1.236,0.732h0.019v-2.947h0.799V308.669z M420.27,305.294
	c-0.732,0-1.064,0.628-1.064,1.845s0.332,1.844,1.064,1.844c0.731,0,1.064-0.627,1.064-1.844S421.001,305.294,420.27,305.294z
	 M426.702,308.669c0,0.295,0.028,0.599,0.038,0.894h-0.77l-0.029-0.713h-0.019c-0.209,0.38-0.57,0.779-1.274,0.779
	c-0.998,0-1.673-0.817-1.673-2.49c0-1.673,0.675-2.491,1.673-2.491c0.552,0,0.913,0.218,1.236,0.732h0.019v-2.947h0.799V308.669z
	 M424.839,305.294c-0.731,0-1.064,0.628-1.064,1.845s0.333,1.844,1.064,1.844c0.732,0,1.064-0.627,1.064-1.844
	S425.571,305.294,424.839,305.294z M428.695,302.718v0.951h-0.874v-0.951H428.695z M427.859,304.714h0.798v4.848h-0.798V304.714z
	 M430.491,307.376c0,1.122,0.437,1.645,1.321,1.645c0.398,0,0.836-0.2,1.112-0.399l0.038,0.722
	c-0.381,0.181-0.875,0.285-1.359,0.285c-1.284,0-1.949-0.97-1.949-2.49c0-1.521,0.665-2.491,1.873-2.491
	c1.093,0,1.701,0.875,1.701,2.3v0.428H430.491z M432.43,306.768c0-1.008-0.313-1.511-0.95-1.511c-0.514,0-0.97,0.38-0.988,1.511
	H432.43z M436.542,302.927h1.597c0.666,0,1.084,0.181,1.436,0.513c0.333,0.323,0.523,0.789,0.523,1.369
	c0,1.292-0.751,1.977-2.158,1.977h-0.561v2.776h-0.837V302.927z M437.379,306.102h0.456c1.018,0,1.388-0.475,1.388-1.217
	c0-0.913-0.514-1.273-1.369-1.273h-0.475V306.102z M442.319,304.648c1.283,0,1.948,0.969,1.948,2.491c0,1.521-0.665,2.49-1.948,2.49
	s-1.949-0.97-1.949-2.49C440.37,305.617,441.036,304.648,442.319,304.648z M442.319,308.982c0.761,0,1.112-0.627,1.112-1.844
	s-0.352-1.845-1.112-1.845s-1.112,0.628-1.112,1.845S441.559,308.982,442.319,308.982z M446.898,304.648
	c1.283,0,1.948,0.969,1.948,2.491c0,1.521-0.665,2.49-1.948,2.49c-1.284,0-1.949-0.97-1.949-2.49
	C444.949,305.617,445.614,304.648,446.898,304.648z M446.898,308.982c0.76,0,1.112-0.627,1.112-1.844s-0.353-1.845-1.112-1.845
	c-0.761,0-1.112,0.628-1.112,1.845S446.138,308.982,446.898,308.982z M449.842,302.433h0.799v7.13h-0.799V302.433z"/>
<text transform="matrix(1 0 0 1 471.8057 275.0586)"><tspan x="0" y="0" font-family="'FrutigerLTStd-BoldCn'" font-size="9.5">P</tspan><tspan x="5.054" y="0" font-family="'FrutigerLTStd-BoldCn'" font-size="9.5">r</tspan><tspan x="8.074" y="0" font-family="'FrutigerLTStd-BoldCn'" font-size="9.5">eschool Swim</tspan></text>
<text transform="matrix(1 0 0 1 484.4023 286.563)" font-family="'FrutigerLTStd-BoldCn'" font-size="9.5">10-11 am</text>
<path d="M484.185,297.335c1.683-1.93,2.519-3.251,2.519-4.135c0-0.599-0.323-1.112-0.979-1.112c-0.381,0-0.894,0.209-1.274,0.514
	l-0.104-0.837c0.57-0.275,1.15-0.399,1.56-0.399c1.026,0,1.673,0.76,1.673,1.673c0,1.16-1.036,2.871-2.472,4.307h2.566v0.722h-3.488
	V297.335z M489.011,297.098c0.285,0.171,0.77,0.352,1.149,0.352c0.847,0,1.379-0.637,1.379-1.502c0-0.903-0.514-1.397-1.407-1.397
	c-0.332,0-0.637,0.076-1.093,0.219v-3.337h3.052v0.685h-2.253v1.854c0.209-0.066,0.503-0.104,0.75-0.104
	c0.979,0,1.826,0.666,1.826,1.978c0,1.378-0.723,2.291-2.14,2.291c-0.428,0-0.912-0.095-1.302-0.266L489.011,297.098z
	 M493.532,294.265c0-0.352-0.028-0.704-0.038-1.046h0.771l0.028,0.723h0.019c0.257-0.551,0.666-0.789,1.198-0.789
	c0.513,0,0.894,0.266,1.141,0.76c0.257-0.475,0.627-0.76,1.179-0.76c0.837,0,1.407,0.485,1.407,1.549v3.365h-0.799v-3.327
	c0-0.618-0.267-0.903-0.741-0.903c-0.59,0-0.913,0.361-0.913,1.236v2.994h-0.799v-3.327c0-0.618-0.266-0.903-0.741-0.903
	c-0.589,0-0.912,0.361-0.912,1.236v2.994h-0.799V294.265z M502.823,291.432h1.598c0.665,0,1.083,0.181,1.435,0.513
	c0.333,0.323,0.523,0.789,0.523,1.369c0,1.293-0.751,1.977-2.158,1.977h-0.561v2.776h-0.837V291.432z M503.66,294.607h0.456
	c1.018,0,1.388-0.476,1.388-1.217c0-0.913-0.513-1.274-1.368-1.274h-0.476V294.607z M508.601,293.153
	c1.283,0,1.948,0.97,1.948,2.491s-0.665,2.49-1.948,2.49s-1.949-0.969-1.949-2.49S507.317,293.153,508.601,293.153z
	 M508.601,297.488c0.761,0,1.112-0.627,1.112-1.844s-0.352-1.844-1.112-1.844s-1.112,0.627-1.112,1.844
	S507.84,297.488,508.601,297.488z M513.18,293.153c1.283,0,1.948,0.97,1.948,2.491s-0.665,2.49-1.948,2.49s-1.949-0.969-1.949-2.49
	S511.896,293.153,513.18,293.153z M513.18,297.488c0.76,0,1.112-0.627,1.112-1.844s-0.353-1.844-1.112-1.844
	c-0.761,0-1.112,0.627-1.112,1.844S512.419,297.488,513.18,297.488z M516.123,290.938h0.799v7.129h-0.799V290.938z M521.341,291.689
	l0.229,0.684l-1.217,0.276l0.817,0.941l-0.59,0.418l-0.627-1.064l-0.646,1.064l-0.58-0.418l0.827-0.941l-1.217-0.276l0.219-0.684
	l1.141,0.494l-0.104-1.245h0.723l-0.124,1.236L521.341,291.689z"/>
<path d="M483.586,302.937h0.837v2.88h0.019l2.196-2.88h0.998l-2.491,3.137l2.7,3.498h-1.084l-2.319-3.213h-0.019v3.213h-0.837
	V302.937z M489.372,302.728v0.951h-0.875v-0.951H489.372z M488.535,304.724h0.799v4.848h-0.799V304.724z M494.057,308.678
	c0,0.295,0.029,0.599,0.038,0.894h-0.77l-0.028-0.713h-0.02c-0.209,0.38-0.57,0.78-1.273,0.78c-0.998,0-1.673-0.818-1.673-2.491
	c0-1.673,0.675-2.491,1.673-2.491c0.551,0,0.912,0.219,1.235,0.732h0.02v-2.947h0.798V308.678z M492.194,305.304
	c-0.732,0-1.065,0.627-1.065,1.844s0.333,1.844,1.065,1.844c0.731,0,1.064-0.627,1.064-1.844S492.926,305.304,492.194,305.304z
	 M498.627,308.678c0,0.295,0.028,0.599,0.038,0.894h-0.771l-0.028-0.713h-0.019c-0.21,0.38-0.571,0.78-1.274,0.78
	c-0.998,0-1.673-0.818-1.673-2.491c0-1.673,0.675-2.491,1.673-2.491c0.552,0,0.913,0.219,1.236,0.732h0.019v-2.947h0.799V308.678z
	 M496.764,305.304c-0.732,0-1.064,0.627-1.064,1.844s0.332,1.844,1.064,1.844c0.731,0,1.064-0.627,1.064-1.844
	S497.495,305.304,496.764,305.304z M500.62,302.728v0.951h-0.875v-0.951H500.62z M499.783,304.724h0.799v4.848h-0.799V304.724z
	 M502.415,307.386c0,1.122,0.438,1.645,1.321,1.645c0.399,0,0.837-0.2,1.112-0.399l0.038,0.723c-0.38,0.181-0.874,0.285-1.359,0.285
	c-1.283,0-1.948-0.97-1.948-2.491s0.665-2.491,1.872-2.491c1.094,0,1.702,0.875,1.702,2.301v0.428H502.415z M504.354,306.777
	c0-1.008-0.313-1.512-0.95-1.512c-0.514,0-0.97,0.38-0.989,1.512H504.354z M508.467,302.937h1.597c0.666,0,1.084,0.181,1.436,0.514
	c0.333,0.323,0.522,0.789,0.522,1.369c0,1.293-0.751,1.978-2.157,1.978h-0.562v2.775h-0.836V302.937z M509.303,306.112h0.457
	c1.017,0,1.388-0.476,1.388-1.217c0-0.913-0.514-1.274-1.369-1.274h-0.476V306.112z M514.243,304.657
	c1.284,0,1.949,0.97,1.949,2.491s-0.665,2.491-1.949,2.491c-1.283,0-1.948-0.97-1.948-2.491S512.96,304.657,514.243,304.657z
	 M514.243,308.992c0.761,0,1.112-0.627,1.112-1.844s-0.352-1.844-1.112-1.844c-0.76,0-1.112,0.627-1.112,1.844
	S513.483,308.992,514.243,308.992z M518.822,304.657c1.283,0,1.949,0.97,1.949,2.491s-0.666,2.491-1.949,2.491
	s-1.948-0.97-1.948-2.491S517.539,304.657,518.822,304.657z M518.822,308.992c0.761,0,1.112-0.627,1.112-1.844
	s-0.352-1.844-1.112-1.844c-0.76,0-1.112,0.627-1.112,1.844S518.062,308.992,518.822,308.992z M521.767,302.442h0.798v7.129h-0.798
	V302.442z"/>
<text transform="matrix(1 0 0 1 47.4785 333.8921)" font-family="'FrutigerLTStd-BoldCn'" font-size="9.5">Public Swim</text>
<text transform="matrix(1 0 0 1 41.6455 345.3965)" font-family="'FrutigerLTStd-BoldCn'" font-size="9.5">11:30 am-1 pm</text>
<text transform="matrix(1 0 0 1 56.0381 356.9009)"><tspan x="0" y="0" font-family="'FrutigerLTStd-Cn'" font-size="9.5">All </tspan><tspan x="12.311" y="0" font-family="'FrutigerLTStd-Cn'" font-size="9.5">P</tspan><tspan x="17.023" y="0" font-family="'FrutigerLTStd-Cn'" font-size="9.5">ools</tspan></text>
<text transform="matrix(1 0 0 1 119.4028 333.9014)" font-family="'FrutigerLTStd-BoldCn'" font-size="9.5">Public Swim</text>
<text transform="matrix(1 0 0 1 113.5698 345.4062)" font-family="'FrutigerLTStd-BoldCn'" font-size="9.5">11:30 am-1 pm</text>
<text transform="matrix(1 0 0 1 127.9624 356.9106)"><tspan x="0" y="0" font-family="'FrutigerLTStd-Cn'" font-size="9.5">All </tspan><tspan x="12.311" y="0" font-family="'FrutigerLTStd-Cn'" font-size="9.5">P</tspan><tspan x="17.023" y="0" font-family="'FrutigerLTStd-Cn'" font-size="9.5">ools</tspan></text>
<text transform="matrix(1 0 0 1 191.3276 333.9111)" font-family="'FrutigerLTStd-BoldCn'" font-size="9.5">Public Swim</text>
<text transform="matrix(1 0 0 1 185.4946 345.4155)" font-family="'FrutigerLTStd-BoldCn'" font-size="9.5">11:30 am-1 pm</text>
<text transform="matrix(1 0 0 1 199.8872 356.9199)"><tspan x="0" y="0" font-family="'FrutigerLTStd-Cn'" font-size="9.5">All </tspan><tspan x="12.311" y="0" font-family="'FrutigerLTStd-Cn'" font-size="9.5">P</tspan><tspan x="17.023" y="0" font-family="'FrutigerLTStd-Cn'" font-size="9.5">ools</tspan></text>
<text transform="matrix(1 0 0 1 263.252 333.9204)" font-family="'FrutigerLTStd-BoldCn'" font-size="9.5">Public Swim</text>
<text transform="matrix(1 0 0 1 257.4189 345.4248)" font-family="'FrutigerLTStd-BoldCn'" font-size="9.5">11:30 am-1 pm</text>
<text transform="matrix(1 0 0 1 271.8115 356.9297)"><tspan x="0" y="0" font-family="'FrutigerLTStd-Cn'" font-size="9.5">All </tspan><tspan x="12.311" y="0" font-family="'FrutigerLTStd-Cn'" font-size="9.5">P</tspan><tspan x="17.023" y="0" font-family="'FrutigerLTStd-Cn'" font-size="9.5">ools</tspan></text>
<text transform="matrix(1 0 0 1 335.1768 333.9302)" font-family="'FrutigerLTStd-BoldCn'" font-size="9.5">Public Swim</text>
<text transform="matrix(1 0 0 1 329.3438 345.4346)" font-family="'FrutigerLTStd-BoldCn'" font-size="9.5">11:30 am-1 pm</text>
<text transform="matrix(1 0 0 1 343.7363 356.939)"><tspan x="0" y="0" font-family="'FrutigerLTStd-Cn'" font-size="9.5">All </tspan><tspan x="12.312" y="0" font-family="'FrutigerLTStd-Cn'" font-size="9.5">P</tspan><tspan x="17.024" y="0" font-family="'FrutigerLTStd-Cn'" font-size="9.5">ools</tspan></text>
<text transform="matrix(1 0 0 1 407.1006 333.9395)" font-family="'FrutigerLTStd-BoldCn'" font-size="9.5">Public Swim</text>
<text transform="matrix(1 0 0 1 417.2188 345.4438)" font-family="'FrutigerLTStd-BoldCn'" font-size="9.5">1-3 pm</text>
<text transform="matrix(1 0 0 1 415.6602 356.9482)"><tspan x="0" y="0" font-family="'FrutigerLTStd-Cn'" font-size="9.5">All </tspan><tspan x="12.312" y="0" font-family="'FrutigerLTStd-Cn'" font-size="9.5">P</tspan><tspan x="17.024" y="0" font-family="'FrutigerLTStd-Cn'" font-size="9.5">ools</tspan></text>
<text transform="matrix(1 0 0 1 479.0254 333.9492)" font-family="'FrutigerLTStd-BoldCn'" font-size="9.5">Public Swim</text>
<text transform="matrix(1 0 0 1 489.1426 345.4536)" font-family="'FrutigerLTStd-BoldCn'" font-size="9.5">1-3 pm</text>
<text transform="matrix(1 0 0 1 487.585 356.958)"><tspan x="0" y="0" font-family="'FrutigerLTStd-Cn'" font-size="9.5">All </tspan><tspan x="12.312" y="0" font-family="'FrutigerLTStd-Cn'" font-size="9.5">P</tspan><tspan x="17.024" y="0" font-family="'FrutigerLTStd-Cn'" font-size="9.5">ools</tspan></text>
<text transform="matrix(1 0 0 1 50.1006 381.2783)" font-family="'FrutigerLTStd-BoldCn'" font-size="9.5">Lane Swim</text>
<text transform="matrix(1 0 0 1 57.5674 392.7822)" font-family="'FrutigerLTStd-BoldCn'" font-size="9.5">5-6 pm</text>
<path d="M54.965,403.555c1.683-1.93,2.519-3.251,2.519-4.135c0-0.599-0.323-1.112-0.979-1.112c-0.38,0-0.894,0.209-1.274,0.514
	l-0.104-0.837c0.57-0.275,1.15-0.399,1.559-0.399c1.026,0,1.673,0.761,1.673,1.673c0,1.16-1.036,2.871-2.472,4.307h2.567v0.723
	h-3.489V403.555z M59.791,403.317c0.285,0.171,0.77,0.352,1.15,0.352c0.846,0,1.378-0.637,1.378-1.502
	c0-0.903-0.513-1.397-1.407-1.397c-0.333,0-0.637,0.076-1.093,0.219v-3.337h3.052v0.685h-2.253v1.854
	c0.209-0.066,0.504-0.104,0.751-0.104c0.979,0,1.825,0.666,1.825,1.978c0,1.379-0.723,2.291-2.139,2.291
	c-0.428,0-0.913-0.095-1.302-0.267L59.791,403.317z M64.313,400.484c0-0.352-0.029-0.703-0.038-1.046h0.77l0.028,0.723h0.019
	c0.257-0.551,0.666-0.789,1.198-0.789c0.513,0,0.894,0.267,1.141,0.761c0.257-0.476,0.627-0.761,1.179-0.761
	c0.837,0,1.407,0.485,1.407,1.55v3.365h-0.799v-3.327c0-0.618-0.266-0.903-0.741-0.903c-0.589,0-0.913,0.361-0.913,1.236v2.994
	h-0.798v-3.327c0-0.618-0.267-0.903-0.742-0.903c-0.589,0-0.913,0.361-0.913,1.236v2.994h-0.798V400.484z M73.604,397.651h1.597
	c0.665,0,1.083,0.181,1.435,0.514c0.333,0.323,0.523,0.789,0.523,1.369c0,1.293-0.751,1.977-2.158,1.977H74.44v2.776h-0.836V397.651
	z M74.44,400.827h0.457c1.017,0,1.388-0.476,1.388-1.217c0-0.913-0.513-1.274-1.369-1.274H74.44V400.827z M79.381,399.372
	c1.284,0,1.949,0.97,1.949,2.491c0,1.521-0.665,2.49-1.949,2.49c-1.283,0-1.949-0.97-1.949-2.49
	C77.432,400.342,78.098,399.372,79.381,399.372z M79.381,403.707c0.761,0,1.112-0.627,1.112-1.844s-0.352-1.845-1.112-1.845
	c-0.76,0-1.112,0.628-1.112,1.845S78.621,403.707,79.381,403.707z M83.96,399.372c1.283,0,1.949,0.97,1.949,2.491
	c0,1.521-0.666,2.49-1.949,2.49s-1.949-0.97-1.949-2.49C82.011,400.342,82.677,399.372,83.96,399.372z M83.96,403.707
	c0.76,0,1.112-0.627,1.112-1.844s-0.352-1.845-1.112-1.845c-0.761,0-1.112,0.628-1.112,1.845S83.199,403.707,83.96,403.707z
	 M86.904,397.157h0.798v7.13h-0.798V397.157z"/>
<text transform="matrix(1 0 0 1 53.7295 415.791)"><tspan x="0" y="0" font-family="'FrutigerLTStd-Cn'" font-size="9.5">Swirl </tspan><tspan x="21.26" y="0" font-family="'FrutigerLTStd-Cn'" font-size="9.5">P</tspan><tspan x="25.973" y="0" font-family="'FrutigerLTStd-Cn'" font-size="9.5">ool</tspan></text>
<text transform="matrix(1 0 0 1 193.959 381.2871)" font-family="'FrutigerLTStd-BoldCn'" font-size="9.5">Lane Swim</text>
<text transform="matrix(1 0 0 1 201.4258 392.792)" font-family="'FrutigerLTStd-BoldCn'" font-size="9.5">5-6 pm</text>
<path d="M198.823,403.564c1.683-1.93,2.519-3.251,2.519-4.135c0-0.6-0.323-1.112-0.979-1.112c-0.38,0-0.894,0.209-1.274,0.513
	l-0.104-0.836c0.57-0.276,1.15-0.399,1.559-0.399c1.026,0,1.673,0.761,1.673,1.673c0,1.16-1.036,2.871-2.472,4.307h2.567v0.723
	h-3.489V403.564z M203.649,403.327c0.285,0.171,0.77,0.352,1.15,0.352c0.846,0,1.378-0.637,1.378-1.502
	c0-0.903-0.514-1.397-1.407-1.397c-0.333,0-0.637,0.076-1.093,0.219v-3.337h3.052v0.685h-2.253v1.854
	c0.209-0.066,0.504-0.104,0.751-0.104c0.979,0,1.825,0.665,1.825,1.978c0,1.378-0.723,2.291-2.139,2.291
	c-0.428,0-0.913-0.096-1.302-0.267L203.649,403.327z M208.171,400.494c0-0.352-0.029-0.703-0.038-1.046h0.77l0.028,0.723h0.019
	c0.257-0.552,0.666-0.789,1.198-0.789c0.514,0,0.894,0.267,1.141,0.761c0.256-0.476,0.627-0.761,1.179-0.761
	c0.836,0,1.407,0.484,1.407,1.55v3.365h-0.798v-3.327c0-0.618-0.266-0.903-0.742-0.903c-0.589,0-0.913,0.361-0.913,1.235v2.995
	h-0.798v-3.327c0-0.618-0.266-0.903-0.742-0.903c-0.589,0-0.913,0.361-0.913,1.235v2.995h-0.798V400.494z M217.462,397.661h1.597
	c0.666,0,1.083,0.181,1.436,0.514c0.333,0.323,0.522,0.789,0.522,1.368c0,1.293-0.751,1.978-2.158,1.978h-0.561v2.776h-0.836
	V397.661z M218.299,400.836h0.457c1.017,0,1.388-0.475,1.388-1.217c0-0.912-0.513-1.273-1.369-1.273h-0.476V400.836z
	 M223.239,399.382c1.284,0,1.949,0.97,1.949,2.49c0,1.521-0.666,2.491-1.949,2.491c-1.283,0-1.949-0.97-1.949-2.491
	C221.291,400.352,221.956,399.382,223.239,399.382z M223.239,403.717c0.761,0,1.112-0.628,1.112-1.845s-0.352-1.844-1.112-1.844
	c-0.76,0-1.112,0.627-1.112,1.844S222.479,403.717,223.239,403.717z M227.818,399.382c1.283,0,1.949,0.97,1.949,2.49
	c0,1.521-0.666,2.491-1.949,2.491s-1.949-0.97-1.949-2.491C225.87,400.352,226.535,399.382,227.818,399.382z M227.818,403.717
	c0.761,0,1.112-0.628,1.112-1.845s-0.352-1.844-1.112-1.844c-0.76,0-1.112,0.627-1.112,1.844S227.058,403.717,227.818,403.717z
	 M230.762,397.167h0.799v7.13h-0.799V397.167z"/>
<text transform="matrix(1 0 0 1 197.5879 415.8008)"><tspan x="0" y="0" font-family="'FrutigerLTStd-Cn'" font-size="9.5">Swirl </tspan><tspan x="21.26" y="0" font-family="'FrutigerLTStd-Cn'" font-size="9.5">P</tspan><tspan x="25.973" y="0" font-family="'FrutigerLTStd-Cn'" font-size="9.5">ool</tspan></text>
<text transform="matrix(1 0 0 1 337.8174 381.2969)" font-family="'FrutigerLTStd-BoldCn'" font-size="9.5">Lane Swim</text>
<text transform="matrix(1 0 0 1 345.2842 392.8018)" font-family="'FrutigerLTStd-BoldCn'" font-size="9.5">5-6 pm</text>
<path d="M342.682,403.574c1.683-1.93,2.52-3.251,2.52-4.136c0-0.599-0.323-1.112-0.979-1.112c-0.38,0-0.894,0.21-1.273,0.514
	l-0.104-0.837c0.57-0.275,1.149-0.398,1.559-0.398c1.026,0,1.673,0.76,1.673,1.673c0,1.159-1.036,2.871-2.472,4.307h2.567v0.722
	h-3.489V403.574z M347.508,403.336c0.285,0.172,0.771,0.353,1.15,0.353c0.846,0,1.378-0.638,1.378-1.502
	c0-0.903-0.513-1.397-1.406-1.397c-0.333,0-0.638,0.076-1.094,0.219v-3.337h3.052v0.685h-2.253v1.854
	c0.209-0.066,0.504-0.104,0.751-0.104c0.979,0,1.825,0.665,1.825,1.978c0,1.378-0.723,2.291-2.139,2.291
	c-0.428,0-0.913-0.096-1.303-0.267L347.508,403.336z M352.029,400.504c0-0.353-0.028-0.704-0.037-1.046h0.77l0.028,0.723h0.02
	c0.257-0.552,0.665-0.789,1.197-0.789c0.514,0,0.894,0.266,1.141,0.76c0.257-0.475,0.628-0.76,1.179-0.76
	c0.837,0,1.407,0.484,1.407,1.549v3.365h-0.799v-3.327c0-0.617-0.266-0.902-0.741-0.902c-0.589,0-0.912,0.36-0.912,1.235v2.994
	h-0.799v-3.327c0-0.617-0.267-0.902-0.741-0.902c-0.59,0-0.913,0.36-0.913,1.235v2.994h-0.799V400.504z M361.321,397.671h1.597
	c0.665,0,1.084,0.181,1.436,0.513c0.333,0.323,0.522,0.789,0.522,1.369c0,1.293-0.751,1.978-2.157,1.978h-0.562v2.775h-0.836
	V397.671z M362.157,400.846h0.456c1.018,0,1.389-0.476,1.389-1.217c0-0.912-0.514-1.273-1.369-1.273h-0.476V400.846z
	 M367.098,399.392c1.283,0,1.949,0.97,1.949,2.49c0,1.521-0.666,2.491-1.949,2.491s-1.948-0.97-1.948-2.491
	C365.149,400.361,365.814,399.392,367.098,399.392z M367.098,403.727c0.761,0,1.112-0.628,1.112-1.845s-0.352-1.844-1.112-1.844
	c-0.76,0-1.112,0.627-1.112,1.844S366.338,403.727,367.098,403.727z M371.677,399.392c1.283,0,1.949,0.97,1.949,2.49
	c0,1.521-0.666,2.491-1.949,2.491s-1.948-0.97-1.948-2.491C369.729,400.361,370.394,399.392,371.677,399.392z M371.677,403.727
	c0.761,0,1.112-0.628,1.112-1.845s-0.352-1.844-1.112-1.844s-1.112,0.627-1.112,1.844S370.916,403.727,371.677,403.727z
	 M374.621,397.177h0.798v7.129h-0.798V397.177z"/>
<text transform="matrix(1 0 0 1 341.4463 415.8105)"><tspan x="0" y="0" font-family="'FrutigerLTStd-Cn'" font-size="9.5">Swirl </tspan><tspan x="21.261" y="0" font-family="'FrutigerLTStd-Cn'" font-size="9.5">P</tspan><tspan x="25.973" y="0" font-family="'FrutigerLTStd-Cn'" font-size="9.5">ool</tspan></text>
<text transform="matrix(1 0 0 1 407.1006 387.0635)" font-family="'FrutigerLTStd-BoldCn'" font-size="9.5">Public Swim</text>
<text transform="matrix(1 0 0 1 411.0439 398.5684)" font-family="'FrutigerLTStd-BoldCn'" font-size="9.5">6:30-8 pm</text>
<text transform="matrix(1 0 0 1 415.6602 410.0723)"><tspan x="0" y="0" font-family="'FrutigerLTStd-Cn'" font-size="9.5">All </tspan><tspan x="12.312" y="0" font-family="'FrutigerLTStd-Cn'" font-size="9.5">P</tspan><tspan x="17.024" y="0" font-family="'FrutigerLTStd-Cn'" font-size="9.5">ools</tspan></text>
<text transform="matrix(1 0 0 1 479.0254 375.5684)" font-family="'FrutigerLTStd-BoldCn'" font-size="9.5">Public Swim</text>
<text transform="matrix(1 0 0 1 482.9678 387.0732)" font-family="'FrutigerLTStd-BoldCn'" font-size="9.5">6:30-8 pm</text>
<path d="M486.54,397.846c1.683-1.93,2.52-3.251,2.52-4.136c0-0.599-0.323-1.112-0.979-1.112c-0.38,0-0.894,0.21-1.273,0.514
	l-0.104-0.836c0.57-0.276,1.15-0.399,1.559-0.399c1.026,0,1.673,0.76,1.673,1.673c0,1.16-1.036,2.871-2.472,4.307h2.567v0.722
	h-3.489V397.846z M491.366,397.607c0.285,0.172,0.771,0.353,1.15,0.353c0.846,0,1.378-0.638,1.378-1.502
	c0-0.903-0.513-1.397-1.406-1.397c-0.333,0-0.637,0.076-1.094,0.219v-3.337h3.052v0.685h-2.253v1.854
	c0.209-0.066,0.504-0.104,0.751-0.104c0.979,0,1.825,0.665,1.825,1.978c0,1.378-0.723,2.291-2.139,2.291
	c-0.428,0-0.913-0.096-1.303-0.267L491.366,397.607z M495.889,394.775c0-0.353-0.029-0.704-0.038-1.046h0.77l0.028,0.723h0.02
	c0.257-0.552,0.665-0.789,1.197-0.789c0.514,0,0.894,0.266,1.141,0.76c0.257-0.475,0.628-0.76,1.18-0.76
	c0.836,0,1.406,0.484,1.406,1.549v3.365h-0.798v-3.327c0-0.617-0.267-0.902-0.742-0.902c-0.589,0-0.912,0.361-0.912,1.235v2.994
	h-0.799v-3.327c0-0.617-0.267-0.902-0.741-0.902c-0.59,0-0.913,0.361-0.913,1.235v2.994h-0.798V394.775z M505.18,391.942h1.597
	c0.666,0,1.084,0.181,1.436,0.513c0.333,0.323,0.522,0.789,0.522,1.369c0,1.293-0.751,1.978-2.157,1.978h-0.562v2.775h-0.836
	V391.942z M506.016,395.117h0.457c1.017,0,1.388-0.476,1.388-1.217c0-0.912-0.514-1.273-1.369-1.273h-0.476V395.117z
	 M510.956,393.663c1.284,0,1.949,0.97,1.949,2.49c0,1.521-0.665,2.491-1.949,2.491c-1.283,0-1.948-0.97-1.948-2.491
	C509.008,394.633,509.673,393.663,510.956,393.663z M510.956,397.998c0.761,0,1.112-0.628,1.112-1.845s-0.352-1.844-1.112-1.844
	c-0.76,0-1.112,0.627-1.112,1.844S510.196,397.998,510.956,397.998z M515.535,393.663c1.283,0,1.949,0.97,1.949,2.49
	c0,1.521-0.666,2.491-1.949,2.491s-1.948-0.97-1.948-2.491C513.587,394.633,514.252,393.663,515.535,393.663z M515.535,397.998
	c0.761,0,1.112-0.628,1.112-1.845s-0.352-1.844-1.112-1.844c-0.76,0-1.112,0.627-1.112,1.844S514.775,397.998,515.535,397.998z
	 M518.479,391.448h0.798v7.129h-0.798V391.448z"/>
<text transform="matrix(1 0 0 1 485.3047 410.082)"><tspan x="0" y="0" font-family="'FrutigerLTStd-Cn'" font-size="9.5">Swirl </tspan><tspan x="21.261" y="0" font-family="'FrutigerLTStd-Cn'" font-size="9.5">P</tspan><tspan x="25.973" y="0" font-family="'FrutigerLTStd-Cn'" font-size="9.5">ool</tspan></text>
<path d="M483.566,414.951h0.837v2.881h0.02l2.195-2.881h0.998l-2.49,3.137l2.7,3.499h-1.084l-2.319-3.214h-0.02v3.214h-0.837
	V414.951z M489.353,414.742v0.95h-0.874v-0.95H489.353z M488.517,416.738h0.798v4.849h-0.798V416.738z M494.038,420.693
	c0,0.294,0.028,0.599,0.038,0.894h-0.77l-0.029-0.714h-0.019c-0.209,0.381-0.57,0.78-1.274,0.78c-0.998,0-1.673-0.817-1.673-2.491
	c0-1.673,0.675-2.49,1.673-2.49c0.552,0,0.913,0.219,1.236,0.731h0.019v-2.946h0.799V420.693z M492.175,417.318
	c-0.731,0-1.064,0.627-1.064,1.844s0.333,1.845,1.064,1.845c0.732,0,1.064-0.628,1.064-1.845S492.907,417.318,492.175,417.318z
	 M498.607,420.693c0,0.294,0.028,0.599,0.038,0.894h-0.77l-0.028-0.714h-0.02c-0.209,0.381-0.57,0.78-1.273,0.78
	c-0.998,0-1.674-0.817-1.674-2.491c0-1.673,0.676-2.49,1.674-2.49c0.551,0,0.912,0.219,1.235,0.731h0.02v-2.946h0.798V420.693z
	 M496.744,417.318c-0.731,0-1.064,0.627-1.064,1.844s0.333,1.845,1.064,1.845c0.732,0,1.065-0.628,1.065-1.845
	S497.477,417.318,496.744,417.318z M500.601,414.742v0.95h-0.874v-0.95H500.601z M499.765,416.738h0.798v4.849h-0.798V416.738z
	 M502.396,419.4c0,1.121,0.438,1.645,1.321,1.645c0.399,0,0.837-0.2,1.112-0.399l0.038,0.723c-0.381,0.181-0.875,0.285-1.359,0.285
	c-1.283,0-1.949-0.97-1.949-2.491c0-1.521,0.666-2.49,1.873-2.49c1.093,0,1.701,0.874,1.701,2.301v0.428H502.396z M504.336,418.792
	c0-1.008-0.314-1.512-0.951-1.512c-0.513,0-0.97,0.38-0.988,1.512H504.336z M508.447,414.951h1.598c0.665,0,1.083,0.181,1.436,0.514
	c0.332,0.323,0.522,0.789,0.522,1.368c0,1.293-0.751,1.978-2.158,1.978h-0.561v2.776h-0.837V414.951z M509.284,418.126h0.456
	c1.018,0,1.388-0.475,1.388-1.217c0-0.912-0.513-1.273-1.368-1.273h-0.476V418.126z M514.225,416.672c1.283,0,1.949,0.97,1.949,2.49
	c0,1.521-0.666,2.491-1.949,2.491s-1.949-0.97-1.949-2.491C512.275,417.642,512.941,416.672,514.225,416.672z M514.225,421.007
	c0.761,0,1.112-0.628,1.112-1.845s-0.352-1.844-1.112-1.844s-1.112,0.627-1.112,1.844S513.464,421.007,514.225,421.007z
	 M518.804,416.672c1.283,0,1.948,0.97,1.948,2.49c0,1.521-0.665,2.491-1.948,2.491s-1.949-0.97-1.949-2.491
	C516.854,417.642,517.521,416.672,518.804,416.672z M518.804,421.007c0.761,0,1.112-0.628,1.112-1.845s-0.352-1.844-1.112-1.844
	s-1.112,0.627-1.112,1.844S518.043,421.007,518.804,421.007z M521.747,414.457h0.799v7.13h-0.799V414.457z"/>
<text transform="matrix(1 0 0 1 190.6152 433.0342)"><tspan x="0" y="0" font-family="'FrutigerLTStd-BoldCn'" font-size="9.5">F</tspan><tspan x="4.104" y="0" font-family="'FrutigerLTStd-BoldCn'" font-size="9.5">amily Swim</tspan></text>
<text transform="matrix(1 0 0 1 195.2607 444.5381)" font-family="'FrutigerLTStd-BoldCn'" font-size="9.5">6-7:30 pm</text>
<path d="M198.833,455.311c1.683-1.93,2.52-3.251,2.52-4.135c0-0.599-0.323-1.112-0.979-1.112c-0.38,0-0.894,0.209-1.273,0.514
	l-0.105-0.837c0.571-0.275,1.15-0.399,1.559-0.399c1.027,0,1.673,0.761,1.673,1.674c0,1.159-1.036,2.87-2.472,4.306h2.566v0.723
	h-3.489V455.311z M203.659,455.073c0.285,0.171,0.77,0.352,1.15,0.352c0.846,0,1.378-0.637,1.378-1.502
	c0-0.903-0.513-1.397-1.407-1.397c-0.333,0-0.637,0.076-1.093,0.219v-3.337h3.051v0.685h-2.253v1.854
	c0.209-0.066,0.504-0.104,0.751-0.104c0.979,0,1.825,0.666,1.825,1.978c0,1.379-0.722,2.291-2.139,2.291
	c-0.428,0-0.913-0.095-1.303-0.266L203.659,455.073z M208.181,452.24c0-0.352-0.028-0.703-0.038-1.045h0.77l0.029,0.722h0.019
	c0.256-0.551,0.666-0.789,1.198-0.789c0.513,0,0.894,0.267,1.141,0.761c0.257-0.476,0.627-0.761,1.179-0.761
	c0.836,0,1.407,0.485,1.407,1.55v3.365h-0.799v-3.327c0-0.618-0.266-0.903-0.741-0.903c-0.589,0-0.913,0.361-0.913,1.236v2.994
	h-0.799v-3.327c0-0.618-0.266-0.903-0.741-0.903c-0.589,0-0.913,0.361-0.913,1.236v2.994h-0.799V452.24z M217.472,449.407h1.597
	c0.666,0,1.084,0.181,1.436,0.514c0.333,0.323,0.523,0.789,0.523,1.369c0,1.293-0.751,1.978-2.158,1.978h-0.561v2.775h-0.836
	V449.407z M218.309,452.583h0.456c1.017,0,1.388-0.476,1.388-1.217c0-0.913-0.514-1.274-1.369-1.274h-0.475V452.583z
	 M223.249,451.128c1.283,0,1.949,0.97,1.949,2.491c0,1.521-0.666,2.49-1.949,2.49s-1.949-0.97-1.949-2.49
	C221.3,452.098,221.966,451.128,223.249,451.128z M223.249,455.463c0.76,0,1.112-0.627,1.112-1.844s-0.352-1.845-1.112-1.845
	c-0.761,0-1.112,0.628-1.112,1.845S222.488,455.463,223.249,455.463z M227.828,451.128c1.283,0,1.949,0.97,1.949,2.491
	c0,1.521-0.666,2.49-1.949,2.49c-1.284,0-1.949-0.97-1.949-2.49C225.879,452.098,226.544,451.128,227.828,451.128z M227.828,455.463
	c0.76,0,1.112-0.627,1.112-1.844s-0.352-1.845-1.112-1.845c-0.761,0-1.112,0.628-1.112,1.845S227.067,455.463,227.828,455.463z
	 M230.772,448.913h0.798v7.13h-0.798V448.913z"/>
<text transform="matrix(1 0 0 1 197.5977 467.5479)"><tspan x="0" y="0" font-family="'FrutigerLTStd-Cn'" font-size="9.5">Swirl </tspan><tspan x="21.26" y="0" font-family="'FrutigerLTStd-Cn'" font-size="9.5">P</tspan><tspan x="25.973" y="0" font-family="'FrutigerLTStd-Cn'" font-size="9.5">ool</tspan></text>
<path d="M195.859,472.417h0.836v2.88h0.019l2.196-2.88h0.998l-2.491,3.137l2.7,3.498h-1.083l-2.32-3.213h-0.019v3.213h-0.836
	V472.417z M201.646,472.207v0.951h-0.875v-0.951H201.646z M200.809,474.204h0.798v4.848h-0.798V474.204z M206.331,478.158
	c0,0.295,0.029,0.599,0.038,0.894h-0.77l-0.028-0.713h-0.019c-0.209,0.381-0.57,0.779-1.274,0.779c-0.998,0-1.673-0.817-1.673-2.49
	s0.675-2.49,1.673-2.49c0.551,0,0.913,0.218,1.236,0.731h0.019v-2.947h0.798V478.158z M204.467,474.784
	c-0.732,0-1.064,0.627-1.064,1.844s0.333,1.844,1.064,1.844s1.065-0.627,1.065-1.844S205.199,474.784,204.467,474.784z
	 M210.9,478.158c0,0.295,0.028,0.599,0.038,0.894h-0.77l-0.028-0.713h-0.019c-0.209,0.381-0.57,0.779-1.274,0.779
	c-0.998,0-1.673-0.817-1.673-2.49s0.675-2.49,1.673-2.49c0.552,0,0.913,0.218,1.236,0.731h0.019v-2.947h0.799V478.158z
	 M209.037,474.784c-0.732,0-1.065,0.627-1.065,1.844s0.333,1.844,1.065,1.844s1.064-0.627,1.064-1.844
	S209.769,474.784,209.037,474.784z M212.894,472.207v0.951h-0.875v-0.951H212.894z M212.057,474.204h0.798v4.848h-0.798V474.204z
	 M214.689,476.865c0,1.122,0.437,1.645,1.321,1.645c0.399,0,0.836-0.199,1.112-0.398l0.038,0.722
	c-0.38,0.181-0.875,0.285-1.359,0.285c-1.284,0-1.949-0.97-1.949-2.49c0-1.521,0.666-2.49,1.873-2.49c1.093,0,1.702,0.874,1.702,2.3
	v0.428H214.689z M216.628,476.257c0-1.007-0.313-1.511-0.951-1.511c-0.513,0-0.969,0.38-0.988,1.511H216.628z M220.74,472.417h1.597
	c0.666,0,1.084,0.181,1.436,0.513c0.333,0.323,0.523,0.789,0.523,1.369c0,1.293-0.751,1.978-2.158,1.978h-0.561v2.775h-0.836
	V472.417z M221.577,475.592h0.456c1.018,0,1.388-0.476,1.388-1.217c0-0.913-0.513-1.273-1.369-1.273h-0.475V475.592z
	 M226.517,474.138c1.283,0,1.949,0.969,1.949,2.49c0,1.521-0.666,2.49-1.949,2.49s-1.949-0.97-1.949-2.49
	C224.568,475.106,225.234,474.138,226.517,474.138z M226.517,478.472c0.76,0,1.112-0.627,1.112-1.844s-0.352-1.844-1.112-1.844
	s-1.112,0.627-1.112,1.844S225.757,478.472,226.517,478.472z M231.096,474.138c1.283,0,1.949,0.969,1.949,2.49
	c0,1.521-0.666,2.49-1.949,2.49c-1.284,0-1.949-0.97-1.949-2.49C229.147,475.106,229.812,474.138,231.096,474.138z M231.096,478.472
	c0.76,0,1.112-0.627,1.112-1.844s-0.352-1.844-1.112-1.844c-0.761,0-1.112,0.627-1.112,1.844S230.335,478.472,231.096,478.472z
	 M234.04,471.922h0.798v7.13h-0.798V471.922z"/>
<text transform="matrix(1 0 0 1 50.1196 491.8672)" font-family="'FrutigerLTStd-BoldCn'" font-size="9.5">Lane Swim</text>
<text transform="matrix(1 0 0 1 45.2363 503.3721)" font-family="'FrutigerLTStd-BoldCn'" font-size="9.5">8:15-9:15 pm</text>
<path d="M52.875,513.907c0.285,0.171,0.77,0.352,1.15,0.352c0.846,0,1.378-0.637,1.378-1.502c0-0.903-0.513-1.397-1.407-1.397
	c-0.333,0-0.637,0.076-1.093,0.219v-3.337h3.052v0.685h-2.253v1.854c0.209-0.066,0.503-0.104,0.751-0.104
	c0.979,0,1.825,0.665,1.825,1.978c0,1.378-0.723,2.291-2.139,2.291c-0.428,0-0.913-0.096-1.302-0.267L52.875,513.907z
	 M59.099,508.175c1.245,0,1.93,1.169,1.93,3.384s-0.685,3.385-1.93,3.385c-1.246,0-1.93-1.17-1.93-3.385
	S57.853,508.175,59.099,508.175z M59.099,514.259c0.76,0,1.093-0.837,1.093-2.7s-0.333-2.699-1.093-2.699
	c-0.761,0-1.093,0.836-1.093,2.699S58.338,514.259,59.099,514.259z M61.957,511.074c0-0.352-0.029-0.704-0.038-1.046h0.77
	l0.028,0.723h0.019c0.257-0.552,0.666-0.789,1.198-0.789c0.513,0,0.894,0.266,1.141,0.761c0.257-0.476,0.627-0.761,1.179-0.761
	c0.837,0,1.407,0.484,1.407,1.55v3.365h-0.799v-3.328c0-0.617-0.266-0.902-0.741-0.902c-0.589,0-0.913,0.361-0.913,1.235v2.995
	h-0.799v-3.328c0-0.617-0.266-0.902-0.741-0.902c-0.589,0-0.913,0.361-0.913,1.235v2.995h-0.798V511.074z M71.248,508.241h1.597
	c0.665,0,1.083,0.181,1.435,0.514c0.333,0.323,0.523,0.789,0.523,1.368c0,1.293-0.751,1.978-2.158,1.978h-0.561v2.776h-0.836
	V508.241z M72.084,511.416h0.457c1.017,0,1.388-0.475,1.388-1.217c0-0.912-0.513-1.273-1.369-1.273h-0.475V511.416z M77.025,509.962
	c1.283,0,1.949,0.97,1.949,2.49c0,1.521-0.666,2.491-1.949,2.491s-1.949-0.97-1.949-2.491
	C75.076,510.932,75.742,509.962,77.025,509.962z M77.025,514.297c0.761,0,1.112-0.628,1.112-1.845s-0.352-1.844-1.112-1.844
	c-0.76,0-1.112,0.627-1.112,1.844S76.265,514.297,77.025,514.297z M81.604,509.962c1.283,0,1.949,0.97,1.949,2.49
	c0,1.521-0.666,2.491-1.949,2.491s-1.949-0.97-1.949-2.491C79.655,510.932,80.321,509.962,81.604,509.962z M81.604,514.297
	c0.76,0,1.112-0.628,1.112-1.845s-0.352-1.844-1.112-1.844c-0.761,0-1.112,0.627-1.112,1.844S80.843,514.297,81.604,514.297z
	 M84.548,507.747h0.798v7.13h-0.798V507.747z M86.001,511.882h4.753v0.646h-4.753V511.882z"/>
<text transform="matrix(1 0 0 1 57.2539 526.3809)" font-family="'FrutigerLTStd-Cn'" font-size="9.5">Shallow</text>
<text transform="matrix(1 0 0 1 122.0439 491.877)" font-family="'FrutigerLTStd-BoldCn'" font-size="9.5">Lane Swim</text>
<text transform="matrix(1 0 0 1 117.1611 503.3818)" font-family="'FrutigerLTStd-BoldCn'" font-size="9.5">8:15-9:15 pm</text>
<path d="M124.799,513.916c0.285,0.172,0.77,0.353,1.15,0.353c0.846,0,1.378-0.638,1.378-1.503c0-0.902-0.513-1.396-1.407-1.396
	c-0.333,0-0.637,0.075-1.093,0.218v-3.336h3.051v0.685h-2.253v1.854c0.209-0.066,0.504-0.104,0.751-0.104
	c0.979,0,1.825,0.665,1.825,1.977c0,1.379-0.723,2.291-2.139,2.291c-0.428,0-0.913-0.095-1.303-0.266L124.799,513.916z
	 M131.023,508.185c1.245,0,1.93,1.169,1.93,3.384s-0.685,3.384-1.93,3.384s-1.93-1.169-1.93-3.384S129.778,508.185,131.023,508.185z
	 M131.023,514.269c0.76,0,1.093-0.837,1.093-2.7s-0.333-2.7-1.093-2.7s-1.093,0.837-1.093,2.7S130.263,514.269,131.023,514.269z
	 M133.881,511.084c0-0.353-0.029-0.704-0.038-1.046h0.77l0.028,0.723h0.019c0.257-0.552,0.666-0.789,1.198-0.789
	c0.514,0,0.894,0.266,1.141,0.76c0.256-0.475,0.627-0.76,1.179-0.76c0.836,0,1.407,0.484,1.407,1.549v3.365h-0.798v-3.327
	c0-0.617-0.266-0.903-0.742-0.903c-0.589,0-0.913,0.361-0.913,1.236v2.994h-0.798v-3.327c0-0.617-0.266-0.903-0.742-0.903
	c-0.589,0-0.913,0.361-0.913,1.236v2.994h-0.798V511.084z M143.172,508.251h1.597c0.666,0,1.083,0.181,1.436,0.513
	c0.333,0.323,0.522,0.789,0.522,1.369c0,1.293-0.751,1.978-2.158,1.978h-0.561v2.775h-0.836V508.251z M144.009,511.426h0.457
	c1.017,0,1.388-0.476,1.388-1.217c0-0.913-0.513-1.273-1.369-1.273h-0.476V511.426z M148.95,509.972c1.283,0,1.949,0.97,1.949,2.49
	s-0.666,2.49-1.949,2.49c-1.284,0-1.949-0.97-1.949-2.49S147.666,509.972,148.95,509.972z M148.95,514.306
	c0.76,0,1.112-0.627,1.112-1.844s-0.352-1.844-1.112-1.844c-0.761,0-1.112,0.627-1.112,1.844S148.189,514.306,148.95,514.306z
	 M153.528,509.972c1.283,0,1.949,0.97,1.949,2.49s-0.666,2.49-1.949,2.49s-1.949-0.97-1.949-2.49S152.245,509.972,153.528,509.972z
	 M153.528,514.306c0.761,0,1.112-0.627,1.112-1.844s-0.352-1.844-1.112-1.844c-0.76,0-1.112,0.627-1.112,1.844
	S152.768,514.306,153.528,514.306z M156.472,507.756h0.799v7.13h-0.799V507.756z M157.925,511.892h4.753v0.646h-4.753V511.892z"/>
<text transform="matrix(1 0 0 1 129.1787 526.3906)" font-family="'FrutigerLTStd-Cn'" font-size="9.5">Shallow</text>
<text transform="matrix(1 0 0 1 193.9688 491.8867)" font-family="'FrutigerLTStd-BoldCn'" font-size="9.5">Lane Swim</text>
<text transform="matrix(1 0 0 1 189.0854 503.3906)" font-family="'FrutigerLTStd-BoldCn'" font-size="9.5">8:15-9:15 pm</text>
<path d="M196.724,513.926c0.285,0.171,0.77,0.352,1.15,0.352c0.846,0,1.378-0.637,1.378-1.502c0-0.903-0.513-1.397-1.407-1.397
	c-0.333,0-0.637,0.076-1.093,0.219v-3.337h3.051v0.685h-2.253v1.854c0.209-0.066,0.504-0.104,0.751-0.104
	c0.979,0,1.825,0.666,1.825,1.978c0,1.379-0.722,2.291-2.139,2.291c-0.428,0-0.913-0.095-1.302-0.266L196.724,513.926z
	 M202.947,508.193c1.246,0,1.93,1.17,1.93,3.385s-0.685,3.384-1.93,3.384c-1.245,0-1.93-1.169-1.93-3.384
	S201.702,508.193,202.947,508.193z M202.947,514.277c0.761,0,1.093-0.836,1.093-2.699s-0.333-2.7-1.093-2.7
	c-0.76,0-1.093,0.837-1.093,2.7S202.187,514.277,202.947,514.277z M205.806,511.093c0-0.352-0.028-0.703-0.038-1.046h0.77
	l0.029,0.723h0.019c0.256-0.551,0.666-0.789,1.198-0.789c0.513,0,0.894,0.267,1.141,0.761c0.257-0.476,0.627-0.761,1.179-0.761
	c0.836,0,1.407,0.485,1.407,1.55v3.365h-0.799v-3.327c0-0.618-0.266-0.903-0.741-0.903c-0.589,0-0.913,0.361-0.913,1.236v2.994
	h-0.799v-3.327c0-0.618-0.266-0.903-0.741-0.903c-0.589,0-0.913,0.361-0.913,1.236v2.994h-0.799V511.093z M215.097,508.26h1.597
	c0.666,0,1.084,0.181,1.436,0.514c0.333,0.323,0.523,0.789,0.523,1.369c0,1.293-0.751,1.978-2.158,1.978h-0.561v2.775h-0.836V508.26
	z M215.934,511.436h0.456c1.017,0,1.388-0.476,1.388-1.217c0-0.913-0.514-1.274-1.369-1.274h-0.475V511.436z M220.874,509.98
	c1.283,0,1.949,0.97,1.949,2.491c0,1.521-0.666,2.49-1.949,2.49s-1.949-0.97-1.949-2.49
	C218.925,510.95,219.591,509.98,220.874,509.98z M220.874,514.315c0.76,0,1.112-0.627,1.112-1.844s-0.352-1.845-1.112-1.845
	c-0.761,0-1.112,0.628-1.112,1.845S220.113,514.315,220.874,514.315z M225.453,509.98c1.283,0,1.949,0.97,1.949,2.491
	c0,1.521-0.666,2.49-1.949,2.49c-1.284,0-1.949-0.97-1.949-2.49C223.504,510.95,224.169,509.98,225.453,509.98z M225.453,514.315
	c0.76,0,1.112-0.627,1.112-1.844s-0.352-1.845-1.112-1.845c-0.761,0-1.112,0.628-1.112,1.845S224.692,514.315,225.453,514.315z
	 M228.397,507.766h0.798v7.13h-0.798V507.766z M229.85,511.901h4.753v0.646h-4.753V511.901z"/>
<text transform="matrix(1 0 0 1 201.103 526.4004)" font-family="'FrutigerLTStd-Cn'" font-size="9.5">Shallow</text>
<text transform="matrix(1 0 0 1 265.8931 491.8965)" font-family="'FrutigerLTStd-BoldCn'" font-size="9.5">Lane Swim</text>
<text transform="matrix(1 0 0 1 261.0098 503.4004)" font-family="'FrutigerLTStd-BoldCn'" font-size="9.5">8:15-9:15 pm</text>
<path d="M268.648,513.936c0.285,0.171,0.77,0.352,1.15,0.352c0.846,0,1.378-0.637,1.378-1.502c0-0.903-0.514-1.397-1.407-1.397
	c-0.333,0-0.637,0.076-1.093,0.219v-3.337h3.052v0.685h-2.253v1.854c0.209-0.066,0.504-0.104,0.751-0.104
	c0.979,0,1.825,0.666,1.825,1.978c0,1.378-0.723,2.291-2.139,2.291c-0.428,0-0.913-0.095-1.302-0.267L268.648,513.936z
	 M274.872,508.203c1.245,0,1.93,1.169,1.93,3.384c0,2.216-0.685,3.385-1.93,3.385c-1.246,0-1.93-1.169-1.93-3.385
	C272.942,509.372,273.626,508.203,274.872,508.203z M274.872,514.287c0.76,0,1.093-0.837,1.093-2.7s-0.333-2.699-1.093-2.699
	c-0.761,0-1.093,0.836-1.093,2.699S274.111,514.287,274.872,514.287z M277.73,511.103c0-0.352-0.029-0.703-0.038-1.046h0.77
	l0.028,0.723h0.019c0.257-0.552,0.666-0.789,1.198-0.789c0.513,0,0.894,0.267,1.141,0.761c0.257-0.476,0.627-0.761,1.179-0.761
	c0.836,0,1.407,0.484,1.407,1.55v3.365h-0.798v-3.327c0-0.618-0.267-0.903-0.742-0.903c-0.589,0-0.913,0.361-0.913,1.235v2.995
	h-0.799v-3.327c0-0.618-0.266-0.903-0.741-0.903c-0.589,0-0.913,0.361-0.913,1.235v2.995h-0.798V511.103z M287.021,508.27h1.597
	c0.666,0,1.084,0.181,1.436,0.514c0.333,0.323,0.523,0.789,0.523,1.369c0,1.292-0.751,1.977-2.158,1.977h-0.561v2.776h-0.836V508.27
	z M287.858,511.444h0.457c1.017,0,1.388-0.475,1.388-1.217c0-0.912-0.514-1.273-1.369-1.273h-0.475V511.444z M292.799,509.99
	c1.283,0,1.948,0.97,1.948,2.49c0,1.521-0.665,2.491-1.948,2.491c-1.284,0-1.949-0.97-1.949-2.491
	C290.85,510.96,291.515,509.99,292.799,509.99z M292.799,514.325c0.76,0,1.112-0.628,1.112-1.845s-0.353-1.844-1.112-1.844
	c-0.761,0-1.112,0.627-1.112,1.844S292.038,514.325,292.799,514.325z M297.377,509.99c1.284,0,1.949,0.97,1.949,2.49
	c0,1.521-0.665,2.491-1.949,2.491c-1.283,0-1.948-0.97-1.948-2.491C295.429,510.96,296.094,509.99,297.377,509.99z M297.377,514.325
	c0.761,0,1.112-0.628,1.112-1.845s-0.352-1.844-1.112-1.844c-0.76,0-1.111,0.627-1.111,1.844S296.617,514.325,297.377,514.325z
	 M300.321,507.775h0.799v7.13h-0.799V507.775z M301.774,511.91h4.753v0.646h-4.753V511.91z"/>
<text transform="matrix(1 0 0 1 273.0273 526.4092)" font-family="'FrutigerLTStd-Cn'" font-size="9.5">Shallow</text>
<text transform="matrix(1 0 0 1 337.8174 491.9053)" font-family="'FrutigerLTStd-BoldCn'" font-size="9.5">Lane Swim</text>
<text transform="matrix(1 0 0 1 332.9346 503.4102)" font-family="'FrutigerLTStd-BoldCn'" font-size="9.5">8:15-9:15 pm</text>
<path d="M340.573,513.945c0.285,0.171,0.77,0.352,1.149,0.352c0.847,0,1.379-0.637,1.379-1.502c0-0.903-0.514-1.397-1.407-1.397
	c-0.332,0-0.637,0.076-1.093,0.219v-3.337h3.052v0.685H341.4v1.854c0.209-0.066,0.503-0.104,0.751-0.104
	c0.979,0,1.825,0.665,1.825,1.978c0,1.378-0.723,2.291-2.14,2.291c-0.428,0-0.912-0.096-1.302-0.267L340.573,513.945z
	 M346.797,508.213c1.245,0,1.93,1.169,1.93,3.384s-0.685,3.385-1.93,3.385c-1.246,0-1.93-1.17-1.93-3.385
	S345.551,508.213,346.797,508.213z M346.797,514.297c0.76,0,1.093-0.837,1.093-2.7s-0.333-2.699-1.093-2.699
	c-0.761,0-1.094,0.836-1.094,2.699S346.036,514.297,346.797,514.297z M349.654,511.112c0-0.352-0.028-0.704-0.037-1.046h0.77
	l0.028,0.723h0.02c0.257-0.552,0.665-0.789,1.197-0.789c0.514,0,0.894,0.266,1.141,0.761c0.257-0.476,0.628-0.761,1.179-0.761
	c0.837,0,1.407,0.484,1.407,1.549v3.365h-0.799v-3.327c0-0.617-0.266-0.902-0.741-0.902c-0.589,0-0.912,0.361-0.912,1.235v2.994
	h-0.799v-3.327c0-0.617-0.267-0.902-0.741-0.902c-0.59,0-0.913,0.361-0.913,1.235v2.994h-0.799V511.112z M358.946,508.279h1.597
	c0.665,0,1.084,0.181,1.436,0.514c0.333,0.322,0.522,0.788,0.522,1.368c0,1.293-0.751,1.978-2.157,1.978h-0.562v2.775h-0.836
	V508.279z M359.782,511.454h0.456c1.018,0,1.389-0.476,1.389-1.217c0-0.912-0.514-1.273-1.369-1.273h-0.476V511.454z M364.723,510
	c1.283,0,1.949,0.97,1.949,2.49c0,1.521-0.666,2.491-1.949,2.491s-1.948-0.97-1.948-2.491C362.774,510.97,363.439,510,364.723,510z
	 M364.723,514.335c0.761,0,1.112-0.628,1.112-1.845s-0.352-1.844-1.112-1.844c-0.76,0-1.112,0.627-1.112,1.844
	S363.963,514.335,364.723,514.335z M369.302,510c1.283,0,1.949,0.97,1.949,2.49c0,1.521-0.666,2.491-1.949,2.491
	s-1.948-0.97-1.948-2.491C367.354,510.97,368.019,510,369.302,510z M369.302,514.335c0.761,0,1.112-0.628,1.112-1.845
	s-0.352-1.844-1.112-1.844s-1.112,0.627-1.112,1.844S368.541,514.335,369.302,514.335z M372.246,507.785h0.798v7.129h-0.798V507.785
	z M373.699,511.92h4.753v0.646h-4.753V511.92z"/>
<text transform="matrix(1 0 0 1 344.9521 526.4189)" font-family="'FrutigerLTStd-Cn'" font-size="9.5">Shallow</text>
</svg>
